<?xml version="1.0" encoding="utf-8"?>
<!-- Generator: Adobe Illustrator 16.0.0, SVG Export Plug-In . SVG Version: 6.00 Build 0)  -->
<!DOCTYPE svg PUBLIC "-//W3C//DTD SVG 1.1//EN" "http://www.w3.org/Graphics/SVG/1.1/DTD/svg11.dtd">
<svg version="1.1" id="Layer_1" xmlns="http://www.w3.org/2000/svg" xmlns:xlink="http://www.w3.org/1999/xlink" x="0px" y="0px"
	 width="100px" height="100px" viewBox="0 0 100 100" enable-background="new 0 0 100 100" xml:space="preserve">
<polygon points="70.406,54 50.453,65.669 30.5,77.339 30.5,54 30.5,30.662 50.453,42.331 "/>
<path d="M94,6H6c-3.313,0-6,2.687-6,6v76c0,3.313,2.687,6,6,6h88c3.314,0,6-2.688,6-6V12C100,8.686,97.314,6,94,6z M79,10
	c2.205,0,4,1.794,4,4s-1.795,4-4,4s-4-1.794-4-4S76.795,10,79,10z M68,10c2.205,0,4,1.794,4,4s-1.795,4-4,4s-4-1.794-4-4
	S65.795,10,68,10z M94,88H6V22h88V88z M90,18c-2.205,0-4-1.794-4-4s1.795-4,4-4s4,1.794,4,4S92.205,18,90,18z"/>
</svg>
