<?xml version="1.0" encoding="utf-8"?>
<!-- Generator: Adobe Illustrator 16.0.0, SVG Export Plug-In . SVG Version: 6.00 Build 0)  -->
<!DOCTYPE svg PUBLIC "-//W3C//DTD SVG 1.1//EN" "http://www.w3.org/Graphics/SVG/1.1/DTD/svg11.dtd">
<svg version="1.1" id="Layer_1" xmlns="http://www.w3.org/2000/svg" xmlns:xlink="http://www.w3.org/1999/xlink" x="0px" y="0px"
	 width="100px" height="100px" viewBox="0 0 100 100" enable-background="new 0 0 100 100" xml:space="preserve">
<g>
	<path d="M50,100C22.43,100,0,77.57,0,50S22.43,0,50,0s50,22.43,50,50S77.57,100,50,100z M50,6C25.738,6,6,25.738,6,50
		s19.738,44,44,44s44-19.738,44-44S74.262,6,50,6z"/>
</g>
<g>
	<path d="M72.466,47.219c-0.322-1.173-3.317-1.274-4.522-0.872c-4.383,1.457-8.766,2.916-13.148,4.373L39.58,44.644l-1.605,1.713
		l6.511,7.818c-4.197,1.451-11.883,4.13-13.278,4.593c-1.201,0.4,7.761,1.672,9.816,1.33c0,0,15.787-5.148,22.768-7.472
		c1.793-0.597,3.587-1.192,5.383-1.791C70.374,50.436,72.815,48.49,72.466,47.219z"/>
	<polygon points="28.72,53.206 27.5,54.332 30.734,58.105 35.421,56.455 	"/>
</g>
<path d="M76.4,23.6H23.6c-1.988,0-3.6,1.612-3.6,3.6v45.6c0,1.987,1.612,3.601,3.6,3.601h52.8c1.988,0,3.6-1.613,3.6-3.601V27.2
	C80,25.211,78.389,23.6,76.4,23.6z M67.4,26c1.322,0,2.399,1.076,2.399,2.4s-1.077,2.4-2.399,2.4c-1.323,0-2.4-1.076-2.4-2.4
	S66.077,26,67.4,26z M60.8,26c1.323,0,2.4,1.076,2.4,2.4s-1.077,2.4-2.4,2.4S58.4,29.724,58.4,28.4S59.477,26,60.8,26z M76.4,72.8
	H23.6V33.2h52.8V72.8z M74,30.8c-1.323,0-2.4-1.076-2.4-2.4S72.677,26,74,26s2.4,1.076,2.4,2.4S75.323,30.8,74,30.8z"/>
</svg>
