<?xml version="1.0" encoding="utf-8"?>
<!-- Generator: Adobe Illustrator 16.0.0, SVG Export Plug-In . SVG Version: 6.00 Build 0)  -->
<!DOCTYPE svg PUBLIC "-//W3C//DTD SVG 1.1//EN" "http://www.w3.org/Graphics/SVG/1.1/DTD/svg11.dtd">
<svg version="1.1" id="Layer_1" xmlns="http://www.w3.org/2000/svg" xmlns:xlink="http://www.w3.org/1999/xlink" x="0px" y="0px"
	 width="100px" height="100px" viewBox="0 0 100 100" enable-background="new 0 0 100 100" xml:space="preserve">
<g>
	<g>
		<path d="M50,100C22.43,100,0,77.57,0,50C0,22.43,22.43,0,50,0c27.57,0,50,22.43,50,50C100,77.57,77.57,100,50,100z M50,6
			C25.738,6,6,25.738,6,50c0,24.262,19.738,44,44,44c24.262,0,44-19.738,44-44C94,25.738,74.262,6,50,6z"/>
	</g>
	<path fill="#020202" d="M80,65.783c-0.243-0.188-30.995-17.043-31.274-17.162l17.159,31.287c0.035-4.706,0.008-9.414,0.014-14.121
		C70.6,65.779,75.301,65.787,80,65.783z"/>
	<path d="M50.472,57.01c-1.116,0.396-2.312,0.627-3.563,0.627c-5.866,0-10.638-4.771-10.638-10.638
		c0-5.866,4.772-10.638,10.638-10.638s10.638,4.772,10.638,10.638c0,1.153-0.191,2.262-0.531,3.302
		c1.051,0.574,2.172,1.187,3.338,1.826c0.61-1.594,0.947-3.323,0.947-5.128c0-7.936-6.455-14.393-14.392-14.393
		c-7.937,0-14.392,6.457-14.392,14.393c0,7.935,6.456,14.392,14.392,14.392c1.905,0,3.723-0.375,5.389-1.051L50.472,57.01z"/>
	<path d="M56.527,68.053c-2.934,1.344-6.188,2.1-9.619,2.1c-12.766,0-23.153-10.387-23.153-23.153
		c0-12.767,10.387-23.153,23.153-23.153c12.767,0,23.152,10.387,23.152,23.153c0,3.33-0.713,6.497-1.982,9.36
		c1.124,0.615,2.23,1.226,3.299,1.812c1.563-3.403,2.439-7.187,2.439-11.171c0-14.837-12.072-26.908-26.908-26.908
		C32.071,20.091,20,32.162,20,46.999c0,14.836,12.071,26.907,26.908,26.907c4.084,0,7.957-0.92,11.428-2.555L56.527,68.053z"/>
</g>
</svg>
