<?xml version="1.0" encoding="utf-8"?>
<!-- Generator: Adobe Illustrator 16.0.0, SVG Export Plug-In . SVG Version: 6.00 Build 0)  -->
<!DOCTYPE svg PUBLIC "-//W3C//DTD SVG 1.1//EN" "http://www.w3.org/Graphics/SVG/1.1/DTD/svg11.dtd">
<svg version="1.1" id="Layer_1" xmlns="http://www.w3.org/2000/svg" xmlns:xlink="http://www.w3.org/1999/xlink" x="0px" y="0px"
	 width="100px" height="100px" viewBox="0 0 100 100" enable-background="new 0 0 100 100" xml:space="preserve">
<g>
	<g>
		<path d="M50,100C22.43,100,0,77.57,0,50C0,22.43,22.43,0,50,0c27.57,0,50,22.43,50,50C100,77.57,77.57,100,50,100z M50,6
			C25.738,6,6,25.738,6,50c0,24.262,19.738,44,44,44c24.262,0,44-19.738,44-44C94,25.738,74.262,6,50,6z"/>
	</g>
	<polygon points="62.244,52.4 50.272,59.4 38.3,66.402 38.3,52.4 38.3,38.397 50.272,45.398 	"/>
	<path d="M76.4,23.6H23.6c-1.988,0-3.6,1.612-3.6,3.6v45.601c0,1.986,1.612,3.6,3.6,3.6h52.8c1.988,0,3.6-1.612,3.6-3.6V27.2
		C80,25.211,78.389,23.6,76.4,23.6z M67.4,26c1.322,0,2.398,1.076,2.398,2.4c0,1.324-1.076,2.4-2.398,2.4
		c-1.323,0-2.4-1.076-2.4-2.4C65,27.076,66.077,26,67.4,26z M60.8,26c1.323,0,2.4,1.076,2.4,2.4c0,1.324-1.077,2.4-2.4,2.4
		S58.4,29.724,58.4,28.4C58.4,27.076,59.477,26,60.8,26z M76.4,72.801H23.6V33.2h52.8V72.801z M74,30.8c-1.322,0-2.4-1.076-2.4-2.4
		c0-1.324,1.078-2.4,2.4-2.4s2.4,1.076,2.4,2.4C76.4,29.724,75.322,30.8,74,30.8z"/>
</g>
</svg>
