<?xml version="1.0" encoding="utf-8"?>
<!-- Generator: Adobe Illustrator 16.0.0, SVG Export Plug-In . SVG Version: 6.00 Build 0)  -->
<!DOCTYPE svg PUBLIC "-//W3C//DTD SVG 1.1//EN" "http://www.w3.org/Graphics/SVG/1.1/DTD/svg11.dtd">
<svg version="1.1" id="Layer_1" xmlns="http://www.w3.org/2000/svg" xmlns:xlink="http://www.w3.org/1999/xlink" x="0px" y="0px"
	 width="100px" height="100px" viewBox="0 0 100 100" enable-background="new 0 0 100 100" xml:space="preserve">
<g>
	<path d="M50,100C22.43,100,0,77.57,0,50S22.43,0,50,0s50,22.43,50,50S77.57,100,50,100z M50,6C25.738,6,6,25.738,6,50
		s19.738,44,44,44s44-19.738,44-44S74.262,6,50,6z"/>
</g>
<g>
	<g>
		<path d="M72.925,21.698c0-0.925-0.772-1.698-1.698-1.698c-14.151,0-28.302,0-42.453,0c-0.925,0-1.698,0.773-1.698,1.698
			c0,18.868,0,37.736,0,56.604c0,0.926,0.772,1.698,1.698,1.698c14.151,0,28.301,0,42.453,0c0.5,0,0.88-0.182,1.151-0.455
			c0.017-0.014,0.032-0.03,0.047-0.045s0.032-0.031,0.045-0.047c0.273-0.271,0.455-0.651,0.455-1.151
			C72.925,59.435,72.925,40.566,72.925,21.698z M69.528,76.604c-13.019,0-26.038,0-39.056,0c0-17.736,0-35.471,0-53.208
			c13.019,0,26.038,0,39.056,0C69.528,41.132,69.528,58.867,69.528,76.604z"/>
	</g>
	<g>
		<rect x="35.101" y="29.9" width="12.8" height="2.4"/>
	</g>
	<rect x="52.3" y="29.6" width="12.9" height="12"/>
	<g>
		<rect x="35.101" y="34.7" width="12.8" height="2.4"/>
	</g>
	<g>
		<rect x="35.101" y="39.5" width="12.8" height="2.4"/>
	</g>
	<g>
		<rect x="35.101" y="44.3" width="30.1" height="2.4"/>
	</g>
	<g>
		<rect x="35.101" y="50.3" width="30.1" height="2.4"/>
	</g>
	<path d="M58.43,63.51h-1.308c-0.17-0.656-0.434-1.287-0.772-1.86l0.928-0.929c0.281-0.281,0.281-0.738,0-1.02l-1.526-1.528
		c-0.281-0.281-0.737-0.281-1.019,0L53.8,59.101c-0.572-0.339-1.203-0.603-1.859-0.772V57.02c0-0.397-0.313-0.72-0.712-0.72h-2.159
		c-0.398,0-0.712,0.322-0.712,0.72v1.309c-0.655,0.17-1.286,0.433-1.859,0.771l-0.93-0.927c-0.281-0.281-0.738-0.281-1.019,0
		l-1.528,1.526c-0.281,0.281-0.281,0.737,0,1.019l0.928,0.932c-0.339,0.573-0.602,1.204-0.772,1.86h-1.308
		c-0.398,0-0.72,0.313-0.72,0.712v2.16c0,0.397,0.322,0.711,0.72,0.711h1.308c0.171,0.656,0.434,1.287,0.772,1.86l-0.928,0.929
		c-0.281,0.281-0.281,0.738,0,1.02l1.527,1.527c0.281,0.282,0.737,0.282,1.018,0.001l0.932-0.928
		c0.573,0.338,1.204,0.602,1.859,0.772v1.309c0,0.397,0.313,0.72,0.712,0.72h2.159c0.398,0,0.712-0.322,0.712-0.72v-1.309
		c0.656-0.171,1.287-0.435,1.86-0.772l0.929,0.928c0.281,0.281,0.738,0.281,1.02,0l1.528-1.527c0.281-0.281,0.281-0.736,0-1.018
		l-0.928-0.933c0.339-0.572,0.603-1.203,0.772-1.859h1.308c0.398,0,0.721-0.313,0.721-0.711v-2.16
		C59.15,63.822,58.828,63.51,58.43,63.51z M50.15,68.9c-1.989,0-3.6-1.613-3.6-3.601c0-1.988,1.611-3.6,3.6-3.6
		c1.987,0,3.6,1.611,3.6,3.6C53.75,67.287,52.138,68.9,50.15,68.9z"/>
</g>
</svg>
