<?xml version="1.0" encoding="utf-8"?>
<!-- Generator: Adobe Illustrator 16.0.0, SVG Export Plug-In . SVG Version: 6.00 Build 0)  -->
<!DOCTYPE svg PUBLIC "-//W3C//DTD SVG 1.1//EN" "http://www.w3.org/Graphics/SVG/1.1/DTD/svg11.dtd">
<svg version="1.1" id="Layer_1" xmlns="http://www.w3.org/2000/svg" xmlns:xlink="http://www.w3.org/1999/xlink" x="0px" y="0px"
	 width="100px" height="100px" viewBox="0 0 100 100" enable-background="new 0 0 100 100" xml:space="preserve">
<g>
	<g>
		<path d="M50,100C22.43,100,0,77.57,0,50C0,22.43,22.43,0,50,0c27.57,0,50,22.43,50,50C100,77.57,77.57,100,50,100z M50,6
			C25.738,6,6,25.738,6,50c0,24.262,19.738,44,44,44c24.262,0,44-19.738,44-44C94,25.738,74.262,6,50,6z"/>
	</g>
	<path d="M62.051,27.207c-9.605-9.608-25.237-9.608-34.845,0c-9.608,9.605-9.608,25.238,0,34.846
		c9.277,9.276,24.172,9.594,33.836,0.951l1.953,1.952c-0.487,1.248-0.231,2.713,0.772,3.718l10.309,10.309
		c1.355,1.355,3.553,1.355,4.906,0c1.355-1.354,1.355-3.551,0-4.905L68.675,63.77c-1.005-1.004-2.474-1.26-3.718-0.772l-1.953-1.955
		C71.646,51.378,71.329,36.483,62.051,27.207z M30.15,59.107c-7.984-7.982-7.984-20.973,0-28.958c7.983-7.984,20.974-7.983,28.958,0
		c7.983,7.984,7.983,20.975,0,28.958C51.124,67.092,38.134,67.092,30.15,59.107z"/>
	<path d="M42.795,49.817l-2.136-2.135l5.899-5.9c2.779,1.636,6.418,1.271,8.803-1.112c2.824-2.825,2.824-7.426,0-10.252
		c-2.826-2.825-7.426-2.825-10.252,0c-2.383,2.384-2.747,6.023-1.113,8.802L33.541,49.676c-0.472,0.472-0.472,1.236,0,1.708
		l0.854,0.852c0.472,0.474,1.235,0.474,1.708,0l1.994-1.99l2.136,2.135c0.472,0.475,1.237,0.473,1.708,0l0.854-0.854
		C43.268,51.055,43.268,50.29,42.795,49.817z M46.818,32.127c1.885-1.884,4.95-1.884,6.833,0c1.886,1.885,1.886,4.949,0,6.834
		c-1.883,1.884-4.947,1.885-6.833,0C44.934,37.077,44.934,34.012,46.818,32.127z"/>
	<g>
		<path d="M36.188,55.997l0.724,2.479l0.659-2.306c0.071-0.241,0.123-0.405,0.157-0.493c0.034-0.089,0.098-0.173,0.191-0.252
			c0.093-0.08,0.222-0.121,0.385-0.121c0.165,0,0.295,0.041,0.389,0.121c0.093,0.079,0.159,0.166,0.197,0.26
			s0.091,0.256,0.159,0.485l0.659,2.306l0.732-2.479c0.048-0.179,0.088-0.308,0.118-0.39c0.03-0.08,0.08-0.15,0.151-0.211
			c0.071-0.063,0.172-0.092,0.305-0.092c0.133,0,0.248,0.045,0.346,0.137c0.098,0.095,0.146,0.201,0.146,0.328
			c0,0.112-0.042,0.285-0.126,0.516l-0.907,2.66c-0.079,0.224-0.14,0.388-0.183,0.486c-0.044,0.1-0.112,0.188-0.206,0.271
			c-0.094,0.077-0.221,0.118-0.385,0.118c-0.167,0-0.3-0.045-0.396-0.129c-0.096-0.082-0.167-0.188-0.214-0.307
			c-0.046-0.123-0.096-0.281-0.15-0.479l-0.635-2.163l-0.614,2.163c-0.081,0.303-0.169,0.529-0.264,0.681
			c-0.095,0.153-0.262,0.229-0.5,0.229c-0.123,0-0.226-0.023-0.311-0.071c-0.085-0.048-0.157-0.115-0.214-0.203
			c-0.057-0.089-0.107-0.192-0.15-0.313c-0.044-0.121-0.077-0.215-0.102-0.287l-0.899-2.658c-0.089-0.25-0.134-0.422-0.134-0.518
			c0-0.119,0.048-0.227,0.143-0.32c0.095-0.096,0.212-0.143,0.35-0.143c0.185,0,0.309,0.051,0.375,0.156
			S36.114,55.745,36.188,55.997z"/>
		<path d="M42.958,55.997l0.724,2.479l0.659-2.306c0.071-0.241,0.123-0.405,0.157-0.493c0.034-0.089,0.098-0.173,0.191-0.252
			c0.093-0.08,0.222-0.121,0.385-0.121c0.165,0,0.295,0.041,0.389,0.121c0.094,0.079,0.159,0.166,0.197,0.26
			c0.038,0.094,0.091,0.256,0.159,0.485l0.659,2.306l0.732-2.479c0.048-0.179,0.088-0.308,0.118-0.39
			c0.03-0.08,0.08-0.15,0.151-0.211c0.071-0.063,0.172-0.092,0.305-0.092c0.133,0,0.248,0.045,0.346,0.137
			c0.098,0.095,0.146,0.201,0.146,0.328c0,0.112-0.042,0.285-0.126,0.516l-0.907,2.66c-0.078,0.224-0.14,0.388-0.183,0.486
			c-0.044,0.1-0.112,0.188-0.206,0.271c-0.094,0.077-0.221,0.118-0.384,0.118c-0.168,0-0.301-0.045-0.396-0.129
			c-0.096-0.082-0.167-0.188-0.214-0.307c-0.046-0.123-0.096-0.281-0.15-0.479l-0.635-2.163l-0.614,2.163
			c-0.081,0.303-0.169,0.529-0.265,0.683c-0.095,0.151-0.262,0.229-0.5,0.229c-0.123,0-0.226-0.022-0.311-0.071
			c-0.085-0.05-0.157-0.115-0.214-0.204c-0.057-0.088-0.107-0.189-0.151-0.313c-0.043-0.121-0.077-0.217-0.101-0.287l-0.899-2.659
			c-0.089-0.249-0.134-0.423-0.134-0.517c0-0.119,0.047-0.228,0.143-0.322c0.095-0.096,0.211-0.143,0.35-0.143
			c0.184,0,0.309,0.053,0.374,0.157C42.815,55.564,42.886,55.745,42.958,55.997z"/>
		<path d="M49.73,55.997l0.724,2.479l0.659-2.306c0.07-0.241,0.123-0.405,0.158-0.493c0.033-0.089,0.098-0.173,0.189-0.252
			c0.092-0.08,0.221-0.121,0.385-0.121s0.295,0.041,0.389,0.121c0.095,0.079,0.16,0.166,0.197,0.26s0.092,0.256,0.158,0.485
			l0.659,2.306l0.731-2.479c0.049-0.179,0.088-0.308,0.117-0.39c0.03-0.08,0.08-0.15,0.151-0.211
			c0.071-0.063,0.172-0.092,0.306-0.092c0.131,0,0.246,0.045,0.346,0.137c0.098,0.095,0.146,0.201,0.146,0.328
			c0,0.112-0.042,0.285-0.126,0.516l-0.908,2.66c-0.078,0.224-0.139,0.388-0.183,0.486c-0.044,0.1-0.111,0.188-0.205,0.271
			c-0.095,0.077-0.222,0.118-0.386,0.118c-0.168,0-0.303-0.045-0.396-0.129c-0.098-0.082-0.169-0.188-0.215-0.307
			c-0.046-0.123-0.099-0.281-0.151-0.479l-0.635-2.163l-0.613,2.163c-0.082,0.303-0.17,0.529-0.264,0.681
			c-0.096,0.153-0.262,0.229-0.501,0.229c-0.122,0-0.225-0.023-0.311-0.071c-0.085-0.048-0.157-0.115-0.214-0.203
			c-0.057-0.089-0.107-0.192-0.15-0.313c-0.044-0.121-0.077-0.215-0.102-0.287l-0.899-2.658c-0.089-0.25-0.134-0.422-0.134-0.518
			c0-0.119,0.047-0.227,0.142-0.32c0.095-0.094,0.212-0.143,0.35-0.143c0.185,0,0.31,0.051,0.374,0.156
			C49.587,55.564,49.658,55.745,49.73,55.997z"/>
	</g>
</g>
</svg>
