<?xml version="1.0" encoding="utf-8"?>
<!-- Generator: Adobe Illustrator 16.0.0, SVG Export Plug-In . SVG Version: 6.00 Build 0)  -->
<!DOCTYPE svg PUBLIC "-//W3C//DTD SVG 1.1//EN" "http://www.w3.org/Graphics/SVG/1.1/DTD/svg11.dtd">
<svg version="1.1" id="Layer_1" xmlns="http://www.w3.org/2000/svg" xmlns:xlink="http://www.w3.org/1999/xlink" x="0px" y="0px"
	 width="100px" height="100px" viewBox="0 0 100 100" enable-background="new 0 0 100 100" xml:space="preserve">
<g>
	<path d="M50,100C22.43,100,0,77.57,0,50S22.43,0,50,0s50,22.43,50,50S77.57,100,50,100z M50,6C25.738,6,6,25.738,6,50
		s19.738,44,44,44s44-19.738,44-44S74.262,6,50,6z"/>
</g>
<g>
	<path d="M46.048,55.647l-8.145,8.145c-2.962,2.962-7.996,2.752-11.219-0.472c-3.223-3.224-3.435-8.255-0.471-11.219l9.229-9.229
		c2.963-2.963,7.996-2.751,11.219,0.472c1.373,1.372,2.192,3.07,2.46,4.799c1.194-0.125,2.32-0.614,3.196-1.489l0.34-0.34
		c-0.544-2.069-1.629-4.049-3.274-5.693c-4.724-4.726-12.201-4.937-16.666-0.471l-9.228,9.228
		c-4.465,4.465-4.253,11.941,0.471,16.667c4.725,4.725,12.202,4.936,16.667,0.471l9.228-9.228c0.522-0.523,0.977-1.091,1.371-1.688
		C49.534,55.947,47.776,55.955,46.048,55.647z"/>
	<path d="M48.494,24.373l-9.229,9.229c-0.523,0.524-0.977,1.092-1.373,1.69c1.693-0.347,3.452-0.357,5.178-0.048l8.146-8.146
		c2.963-2.963,7.996-2.751,11.219,0.472c3.224,3.223,3.436,8.255,0.472,11.218l-9.228,9.229c-2.964,2.963-7.996,2.751-11.219-0.471
		c-1.372-1.373-2.193-3.072-2.46-4.801c-1.194,0.124-2.321,0.616-3.197,1.491l-0.339,0.34c0.544,2.069,1.628,4.049,3.273,5.693
		c4.725,4.726,12.201,4.937,16.666,0.472l9.228-9.228c4.466-4.466,4.254-11.941-0.471-16.667
		C60.436,20.121,52.959,19.908,48.494,24.373z"/>
</g>
<path d="M67.434,54.481c-7.093,0-12.841,5.75-12.841,12.841s5.748,12.842,12.841,12.842c7.092,0,12.841-5.751,12.841-12.842
	S74.525,54.481,67.434,54.481z M74.978,69.968h-4.749v4.77c0,1.5-1.216,2.714-2.715,2.714s-2.715-1.214-2.715-2.714v-4.77h-4.75
	c-1.498,0-2.714-1.216-2.714-2.715s1.216-2.715,2.714-2.715h4.75v-4.73c0-1.499,1.216-2.714,2.715-2.714s2.715,1.215,2.715,2.714
	v4.73h4.749c1.499,0,2.716,1.216,2.716,2.715C77.692,68.752,76.477,69.968,74.978,69.968z"/>
</svg>
