<?xml version="1.0" encoding="utf-8"?>
<!-- Generator: Adobe Illustrator 16.0.0, SVG Export Plug-In . SVG Version: 6.00 Build 0)  -->
<!DOCTYPE svg PUBLIC "-//W3C//DTD SVG 1.1//EN" "http://www.w3.org/Graphics/SVG/1.1/DTD/svg11.dtd">
<svg version="1.1" id="Layer_1" xmlns="http://www.w3.org/2000/svg" xmlns:xlink="http://www.w3.org/1999/xlink" x="0px" y="0px"
	 width="100px" height="100px" viewBox="0 0 100 100" enable-background="new 0 0 100 100" xml:space="preserve">
<g>
	<path d="M50,100C22.43,100,0,77.57,0,50S22.43,0,50,0s50,22.43,50,50S77.57,100,50,100z M50,6C25.738,6,6,25.738,6,50
		s19.738,44,44,44s44-19.738,44-44S74.262,6,50,6z"/>
</g>
<g>
	<g>
		<path d="M76.856,38.976l-1.209,0.5c-0.408-0.54-0.893-1.022-1.425-1.422l0.501-1.214c0.152-0.367-0.022-0.79-0.39-0.941
			l-1.995-0.827c-0.367-0.152-0.788,0.022-0.94,0.389l-0.507,1.213c-0.658-0.094-1.342-0.096-2.013-0.002l-0.5-1.208
			c-0.152-0.368-0.565-0.545-0.933-0.393l-1.996,0.827c-0.367,0.151-0.533,0.569-0.381,0.937l0.5,1.208
			c-0.54,0.408-1.022,0.893-1.422,1.425l-1.214-0.501c-0.366-0.152-0.789,0.023-0.942,0.39l-0.826,1.996
			c-0.152,0.367,0.021,0.788,0.389,0.94l1.214,0.505c-0.095,0.659-0.096,1.342-0.003,2.013l-1.208,0.5
			c-0.368,0.151-0.546,0.565-0.394,0.933l0.827,1.995c0.151,0.368,0.569,0.534,0.938,0.382l1.208-0.5
			c0.409,0.541,0.893,1.022,1.426,1.423l-0.502,1.213c-0.152,0.368,0.023,0.79,0.391,0.942l1.995,0.827
			c0.367,0.152,0.788-0.021,0.94-0.389l0.506-1.213c0.659,0.093,1.342,0.095,2.014,0.002l0.5,1.209
			c0.152,0.366,0.564,0.545,0.932,0.392l1.997-0.826c0.366-0.152,0.533-0.57,0.381-0.938l-0.501-1.208
			c0.541-0.409,1.023-0.893,1.423-1.425l1.213,0.501c0.367,0.152,0.79-0.023,0.941-0.39l0.828-1.995
			c0.152-0.368-0.022-0.789-0.39-0.94L77.017,44.8c0.094-0.658,0.096-1.341,0.002-2.012l1.208-0.5
			c0.368-0.152,0.546-0.565,0.394-0.933l-0.827-1.995C77.641,38.991,77.224,38.824,76.856,38.976z M71.27,47.126
			c-1.838,0.761-3.943-0.112-4.704-1.949c-0.761-1.837,0.111-3.942,1.949-4.704c1.837-0.761,3.941,0.112,4.702,1.949
			C73.979,44.259,73.106,46.365,71.27,47.126z"/>
		<path d="M68.091,54.493V70.4H41.691V30.2h26.399v2.891h3V24.8c0-2.65-2.148-4.8-4.8-4.8H43.492c-2.651,0-4.8,2.149-4.8,4.8v50.4
			c0,2.65,2.149,4.8,4.8,4.8h22.799c2.651,0,4.8-2.149,4.8-4.8V54.493H68.091z M52.511,25.4h4.801c0.331,0,0.6,0.269,0.6,0.6
			s-0.269,0.6-0.6,0.6h-4.801c-0.331,0-0.6-0.269-0.6-0.6S52.18,25.4,52.511,25.4z M54.712,77.159c-1.325,0-2.401-1.074-2.401-2.399
			c0-1.326,1.076-2.4,2.401-2.4s2.398,1.074,2.398,2.4C57.11,76.085,56.037,77.159,54.712,77.159z"/>
	</g>
	<rect x="21.325" y="35.317" width="14.4" height="3"/>
	<rect x="24.925" y="41.317" width="10.8" height="3"/>
	<rect x="32.125" y="47.317" width="3.6" height="3"/>
</g>
</svg>
