<?xml version="1.0" encoding="utf-8"?>
<!-- Generator: Adobe Illustrator 16.0.0, SVG Export Plug-In . SVG Version: 6.00 Build 0)  -->
<!DOCTYPE svg PUBLIC "-//W3C//DTD SVG 1.1//EN" "http://www.w3.org/Graphics/SVG/1.1/DTD/svg11.dtd">
<svg version="1.1" id="Layer_1" xmlns="http://www.w3.org/2000/svg" xmlns:xlink="http://www.w3.org/1999/xlink" x="0px" y="0px"
	 width="100px" height="100px" viewBox="0 0 100 100" enable-background="new 0 0 100 100" xml:space="preserve">
<g>
	<path d="M50,100C22.43,100,0,77.57,0,50S22.43,0,50,0s50,22.43,50,50S77.57,100,50,100z M50,6C25.738,6,6,25.738,6,50
		s19.738,44,44,44s44-19.738,44-44S74.262,6,50,6z"/>
</g>
<path d="M76.4,23.6H23.6c-1.988,0-3.6,1.612-3.6,3.6v45.6c0,1.987,1.612,3.601,3.6,3.601h52.8c1.988,0,3.6-1.613,3.6-3.601V27.2
	C80,25.211,78.389,23.6,76.4,23.6z M67.4,26c1.322,0,2.399,1.076,2.399,2.4s-1.077,2.4-2.399,2.4c-1.323,0-2.4-1.076-2.4-2.4
	S66.077,26,67.4,26z M60.8,26c1.323,0,2.4,1.076,2.4,2.4s-1.077,2.4-2.4,2.4S58.4,29.724,58.4,28.4S59.477,26,60.8,26z M76.4,72.8
	H23.6V33.2h52.8V72.8z M74,30.8c-1.323,0-2.4-1.076-2.4-2.4S72.677,26,74,26s2.4,1.076,2.4,2.4S75.323,30.8,74,30.8z"/>
<g>
	<path d="M48.749,39.64c0.832-0.112,1.679-0.101,2.511-0.004c0.008,2.311,0.004,4.619,0,6.93c-0.843-0.042-1.685-0.047-2.525,0.023
		C48.771,44.271,48.736,41.954,48.749,39.64z"/>
	<path d="M39.744,41.884c0.755-0.326,1.51-0.651,2.282-0.937c0.917,2.135,1.801,4.287,2.674,6.439
		c-0.808,0.235-1.548,0.642-2.336,0.925C41.517,46.158,40.564,44.047,39.744,41.884z"/>
	<path d="M55.313,47.375c0.872-2.145,1.755-4.288,2.669-6.417c0.776,0.268,1.532,0.597,2.284,0.922
		c-0.822,2.162-1.771,4.276-2.624,6.428C56.859,48.019,56.109,47.638,55.313,47.375z"/>
	<path d="M32.324,47.531c0.428-0.69,1.125-1.267,1.755-1.806c1.595,1.678,3.309,3.242,4.874,4.943
		c-0.651,0.517-1.193,1.148-1.784,1.732C35.569,50.761,33.931,49.16,32.324,47.531z"/>
	<path d="M65.923,45.768c0.657,0.439,1.32,1.099,1.762,1.755c-1.608,1.636-3.241,3.248-4.858,4.873
		c-0.564-0.618-1.168-1.195-1.771-1.774C62.676,49.002,64.289,47.375,65.923,45.768z"/>
	<path d="M28.444,53.187c2.166,0.803,4.267,1.771,6.417,2.618c-0.26,0.795-0.691,1.527-0.92,2.338
		c-2.146-0.89-4.298-1.771-6.441-2.671C27.791,54.701,28.113,53.941,28.444,53.187z"/>
	<path d="M65.143,55.805c2.153-0.847,4.258-1.813,6.425-2.618c0.34,0.749,0.651,1.512,0.933,2.284
		c-2.137,0.903-4.278,1.79-6.427,2.669C65.826,57.335,65.41,56.599,65.143,55.805z"/>
</g>
<path d="M50.529,62.468c-0.204-0.043-0.413-0.068-0.629-0.068c-1.657,0-3,1.343-3,3s1.343,3,3,3c1.645,0,2.977-1.324,2.997-2.965
	l4.952-7.684L50.529,62.468z"/>
</svg>
