<?xml version="1.0" encoding="utf-8"?>
<!-- Generator: Adobe Illustrator 16.0.0, SVG Export Plug-In . SVG Version: 6.00 Build 0)  -->
<!DOCTYPE svg PUBLIC "-//W3C//DTD SVG 1.1//EN" "http://www.w3.org/Graphics/SVG/1.1/DTD/svg11.dtd">
<svg version="1.1" id="Layer_1" xmlns="http://www.w3.org/2000/svg" xmlns:xlink="http://www.w3.org/1999/xlink" x="0px" y="0px"
	 width="100px" height="100px" viewBox="0 0 100 100" enable-background="new 0 0 100 100" xml:space="preserve">
<g>
	<g>
		<path d="M50,100C22.43,100,0,77.57,0,50C0,22.43,22.43,0,50,0c27.57,0,50,22.43,50,50C100,77.57,77.57,100,50,100z M50,6
			C25.738,6,6,25.738,6,50c0,24.262,19.738,44,44,44c24.262,0,44-19.738,44-44C94,25.738,74.262,6,50,6z"/>
	</g>
	<g>
		<path d="M78.646,32.732l-7.299-6.366L64.047,20l-7.3,6.366l-7.3,6.366h7.989c-2.689,16.522-17.956,29.377-35.33,26.643
			c-0.764-0.119-1.074,0.909-0.322,1.171c21.62,7.522,46.528-4.839,50.131-27.813L78.646,32.732L78.646,32.732z"/>
		<path d="M62.456,54.08c-2.245,2.074-4.755,3.883-7.474,5.395V80h7.474V54.08z"/>
		<path d="M43.772,80h7.474V61.307c-2.375,1.012-4.875,1.811-7.474,2.366V80z"/>
		<path d="M66.191,80h7.475V34.601h-0.189c-1.172,5.794-3.718,11.039-7.283,15.469V80H66.191z"/>
		<path d="M28.826,64.172c-2.538-0.371-5.037-0.967-7.473-1.803V80h7.473V64.172z"/>
		<path d="M32.563,80h7.473V64.303c-1.699,0.205-3.431,0.313-5.191,0.313c-0.763,0-1.524-0.028-2.282-0.069V80z"/>
	</g>
</g>
</svg>
