<?xml version="1.0" encoding="utf-8"?>
<!-- Generator: Adobe Illustrator 16.0.0, SVG Export Plug-In . SVG Version: 6.00 Build 0)  -->
<!DOCTYPE svg PUBLIC "-//W3C//DTD SVG 1.1//EN" "http://www.w3.org/Graphics/SVG/1.1/DTD/svg11.dtd">
<svg version="1.1" id="Layer_1" xmlns="http://www.w3.org/2000/svg" xmlns:xlink="http://www.w3.org/1999/xlink" x="0px" y="0px"
	 width="100px" height="100px" viewBox="0 0 100 100" enable-background="new 0 0 100 100" xml:space="preserve">
<g>
	<path d="M26,58h52V30H26V58z M40,55h-4v-9h4V55z M51,55h-5V42h5V55z M60,55h-5v-9h5V55z M69,55h-5V42h5V55z M48.913,34.067
		l9.498,6.085l12.087-8.746l1.407,1.944l-13.412,9.705l-9.704-6.215l-15.582,8.002l-1.111-2.127L48.913,34.067z"/>
	<path d="M50,0C22.386,0,0,22.386,0,50s22.386,50,50,50s50-22.386,50-50S77.614,0,50,0z M60.794,73.944
		c-0.791,0.106-8.242,0.01-8.793,0c-0.55,0.01-8.004,0.106-8.794,0c-0.82-0.11,0-0.767,1.039-1.531
		c1.04-0.766,1.148-1.919,1.148-1.919L45.786,68h12.429l0.39,2.496c0,0,0.11,1.149,1.15,1.915
		C60.793,73.178,61.613,73.834,60.794,73.944z M82,63.601C82,64.926,80.926,66,79.6,66H24.4c-1.326,0-2.4-1.074-2.4-2.399V28.399
		C22,27.074,23.075,26,24.4,26H79.6c1.326,0,2.4,1.074,2.4,2.399V63.601z"/>
</g>
</svg>
