<?xml version="1.0" encoding="utf-8"?>
<!-- Generator: Adobe Illustrator 16.0.0, SVG Export Plug-In . SVG Version: 6.00 Build 0)  -->
<!DOCTYPE svg PUBLIC "-//W3C//DTD SVG 1.1//EN" "http://www.w3.org/Graphics/SVG/1.1/DTD/svg11.dtd">
<svg version="1.1" id="Layer_1" xmlns="http://www.w3.org/2000/svg" xmlns:xlink="http://www.w3.org/1999/xlink" x="0px" y="0px"
	 width="100px" height="100px" viewBox="0 0 100 100" enable-background="new 0 0 100 100" xml:space="preserve">
<g>
	<path d="M49.999,25.453c-11.762,0-21.299,9.537-21.299,21.303c0,11.763,9.537,21.298,21.299,21.298
		c11.765,0,21.297-9.535,21.301-21.298C71.3,34.989,61.764,25.453,49.999,25.453z M64.358,44.167
		c-2.1,1.726-4.179,3.474-6.271,5.205c-0.059,0.05-0.117,0.102-0.157,0.168c0.592,2.574,1.254,5.136,1.874,7.706
		c0.469,1.289-0.63,2.808-2.01,2.707c-0.478-0.006-0.894-0.267-1.272-0.526c-2.053-1.296-4.105-2.594-6.16-3.889
		c-0.174-0.107-0.34-0.242-0.536-0.305c-2.329,1.401-4.622,2.868-6.943,4.281c-0.639,0.381-1.488,0.375-2.115-0.027
		c-0.661-0.393-1.067-1.204-0.912-1.971c0.668-2.747,1.421-5.481,2.06-8.233c-1.887-1.624-3.802-3.215-5.697-4.828
		c-0.429-0.348-0.895-0.712-1.081-1.254c-0.456-1.089,0.265-2.508,1.458-2.678c2.839-0.24,5.698-0.341,8.531-0.602
		c0.979-2.341,1.922-4.7,2.891-7.047c0.178-0.469,0.387-0.957,0.798-1.27c0.91-0.779,2.507-0.518,3.023,0.594
		c1.047,2.593,2.074,5.193,3.114,7.789c0.019,0.088,0.101,0.118,0.182,0.118c2.603,0.178,5.203,0.39,7.807,0.577
		c0.745,0.015,1.486,0.426,1.823,1.104C65.183,42.547,65.042,43.603,64.358,44.167z"/>
	<path d="M50,0C22.387,0,0,22.386,0,50c0,27.613,22.387,50,50,50s50-22.387,50-50C100,22.386,77.613,0,50,0z M67.557,64.392
		L49.952,82L32.38,64.529c-9.724-9.725-9.655-25.472,0.07-35.197c9.725-9.724,25.438-9.803,35.162-0.079
		C77.335,38.979,77.282,54.666,67.557,64.392z"/>
</g>
</svg>
