<?xml version="1.0" encoding="utf-8"?>
<!-- Generator: Adobe Illustrator 16.0.0, SVG Export Plug-In . SVG Version: 6.00 Build 0)  -->
<!DOCTYPE svg PUBLIC "-//W3C//DTD SVG 1.1//EN" "http://www.w3.org/Graphics/SVG/1.1/DTD/svg11.dtd">
<svg version="1.1" id="Layer_1" xmlns="http://www.w3.org/2000/svg" xmlns:xlink="http://www.w3.org/1999/xlink" x="0px" y="0px"
	 width="100px" height="100px" viewBox="0 0 100 100" enable-background="new 0 0 100 100" xml:space="preserve">
<g>
	<path d="M50,0C22.386,0,0,22.386,0,50s22.386,50,50,50s50-22.386,50-50S77.614,0,50,0z M78.983,78.983
		c-1.354,1.355-3.551,1.355-4.906,0l-10.31-10.309c-1.004-1.005-1.259-2.471-0.772-3.718l-1.953-1.952
		c-9.664,8.642-24.559,8.325-33.837-0.953c-9.608-9.606-9.608-25.239,0-34.845c9.608-9.608,25.24-9.608,34.847,0
		c9.278,9.276,9.597,24.171,0.953,33.835l1.953,1.955c1.244-0.487,2.712-0.232,3.718,0.772l10.308,10.308
		C80.34,75.433,80.34,77.63,78.983,78.983z"/>
	<path d="M46.818,32.126c-1.885,1.885-1.885,4.951,0,6.835c1.884,1.885,4.949,1.884,6.833,0c1.885-1.885,1.885-4.95,0-6.835
		C51.769,30.243,48.703,30.243,46.818,32.126z"/>
	<path d="M59.108,30.15c-7.984-7.984-20.975-7.984-28.959,0c-7.984,7.984-7.984,20.975,0,28.958s20.975,7.983,28.959,0
		C67.092,51.125,67.092,38.134,59.108,30.15z M41.377,56.286l-0.907,2.659c-0.079,0.224-0.14,0.388-0.184,0.487
		c-0.044,0.099-0.111,0.188-0.206,0.27c-0.093,0.078-0.221,0.118-0.384,0.118c-0.168,0-0.3-0.044-0.396-0.128
		c-0.096-0.082-0.167-0.188-0.214-0.308c-0.046-0.122-0.096-0.28-0.15-0.477l-0.635-2.164l-0.614,2.164
		c-0.081,0.302-0.169,0.528-0.264,0.68c-0.095,0.153-0.262,0.229-0.5,0.229c-0.122,0-0.226-0.023-0.311-0.071
		s-0.157-0.115-0.214-0.203s-0.107-0.191-0.15-0.313c-0.044-0.12-0.077-0.216-0.102-0.286l-0.899-2.66
		c-0.089-0.25-0.134-0.422-0.134-0.517c0-0.119,0.048-0.227,0.143-0.321c0.095-0.095,0.212-0.143,0.35-0.143
		c0.185,0,0.309,0.053,0.375,0.157c0.065,0.106,0.135,0.285,0.208,0.537l0.724,2.48l0.659-2.306
		c0.071-0.241,0.123-0.405,0.157-0.493c0.034-0.089,0.098-0.173,0.191-0.252c0.093-0.08,0.222-0.121,0.385-0.121
		c0.165,0,0.295,0.041,0.389,0.121c0.094,0.079,0.159,0.166,0.197,0.26c0.038,0.095,0.091,0.255,0.159,0.485l0.658,2.306l0.732-2.48
		c0.049-0.179,0.088-0.308,0.118-0.389s0.08-0.151,0.15-0.212s0.172-0.091,0.305-0.091c0.133,0,0.248,0.045,0.346,0.137
		c0.098,0.094,0.146,0.201,0.146,0.327C41.503,55.883,41.461,56.056,41.377,56.286z M48.149,56.286l-0.908,2.659
		c-0.079,0.224-0.14,0.388-0.183,0.487c-0.044,0.101-0.112,0.188-0.206,0.27c-0.094,0.078-0.222,0.118-0.384,0.118
		c-0.168,0-0.301-0.044-0.397-0.128c-0.095-0.082-0.167-0.188-0.214-0.308c-0.046-0.122-0.096-0.28-0.15-0.477l-0.634-2.163
		l-0.614,2.163c-0.082,0.302-0.169,0.528-0.265,0.682c-0.095,0.151-0.262,0.229-0.5,0.229c-0.122,0-0.226-0.022-0.311-0.071
		s-0.157-0.115-0.213-0.203c-0.057-0.089-0.107-0.191-0.151-0.313c-0.044-0.121-0.077-0.217-0.102-0.286l-0.898-2.66
		c-0.09-0.249-0.134-0.421-0.134-0.517c0-0.119,0.047-0.226,0.143-0.321c0.095-0.096,0.211-0.142,0.35-0.142
		c0.185,0,0.309,0.051,0.375,0.157c0.065,0.104,0.135,0.283,0.208,0.535l0.724,2.48l0.659-2.306c0.07-0.241,0.123-0.405,0.157-0.493
		c0.034-0.089,0.098-0.173,0.191-0.252c0.093-0.08,0.221-0.121,0.384-0.121c0.166,0,0.295,0.041,0.389,0.121
		c0.094,0.079,0.159,0.166,0.197,0.26c0.038,0.095,0.091,0.255,0.159,0.485l0.659,2.306l0.732-2.48
		c0.048-0.179,0.088-0.308,0.118-0.389s0.08-0.151,0.151-0.212c0.07-0.061,0.172-0.091,0.305-0.091c0.132,0,0.248,0.045,0.346,0.137
		c0.098,0.094,0.146,0.201,0.146,0.327C48.275,55.883,48.233,56.056,48.149,56.286z M54.92,56.286l-0.908,2.659
		c-0.077,0.224-0.139,0.388-0.183,0.487c-0.044,0.101-0.111,0.188-0.205,0.27c-0.095,0.078-0.222,0.118-0.386,0.118
		c-0.168,0-0.301-0.044-0.395-0.128c-0.098-0.082-0.168-0.188-0.215-0.308c-0.046-0.122-0.098-0.28-0.151-0.477l-0.635-2.164
		l-0.614,2.164c-0.081,0.302-0.169,0.528-0.263,0.68c-0.096,0.153-0.262,0.229-0.501,0.229c-0.122,0-0.225-0.023-0.311-0.071
		c-0.085-0.048-0.157-0.115-0.214-0.203s-0.107-0.191-0.15-0.313c-0.044-0.12-0.077-0.216-0.102-0.286l-0.899-2.66
		c-0.089-0.25-0.134-0.422-0.134-0.517c0-0.119,0.048-0.227,0.143-0.321s0.211-0.143,0.35-0.143c0.185,0,0.309,0.053,0.374,0.157
		c0.066,0.106,0.137,0.285,0.209,0.537l0.724,2.48l0.659-2.306c0.072-0.241,0.123-0.405,0.158-0.493
		c0.033-0.089,0.098-0.173,0.19-0.252c0.092-0.08,0.221-0.121,0.385-0.121s0.295,0.041,0.389,0.121
		c0.094,0.079,0.159,0.166,0.197,0.26c0.038,0.095,0.091,0.255,0.158,0.485l0.659,2.306l0.731-2.48
		c0.049-0.179,0.089-0.308,0.118-0.389c0.03-0.081,0.08-0.151,0.151-0.212s0.172-0.091,0.305-0.091c0.132,0,0.247,0.045,0.346,0.137
		c0.098,0.094,0.146,0.201,0.146,0.327C55.047,55.883,55.004,56.056,54.92,56.286z M55.362,40.67
		c-2.385,2.382-6.024,2.748-8.803,1.112l-5.899,5.9l2.136,2.135c0.472,0.473,0.472,1.236,0,1.709l-0.854,0.854
		c-0.471,0.472-1.236,0.474-1.708,0l-2.137-2.135l-1.994,1.991c-0.472,0.473-1.236,0.473-1.708,0l-0.854-0.853
		c-0.472-0.472-0.472-1.236,0-1.708L43.998,39.22c-1.635-2.779-1.271-6.418,1.113-8.802c2.826-2.826,7.426-2.826,10.252,0
		C58.188,33.244,58.188,37.845,55.362,40.67z"/>
</g>
</svg>
