<?xml version="1.0" encoding="utf-8"?>
<!-- Generator: Adobe Illustrator 16.0.0, SVG Export Plug-In . SVG Version: 6.00 Build 0)  -->
<!DOCTYPE svg PUBLIC "-//W3C//DTD SVG 1.1//EN" "http://www.w3.org/Graphics/SVG/1.1/DTD/svg11.dtd">
<svg version="1.1" id="Layer_1" xmlns="http://www.w3.org/2000/svg" xmlns:xlink="http://www.w3.org/1999/xlink" x="0px" y="0px"
	 width="100px" height="100px" viewBox="0 0 100 100" enable-background="new 0 0 100 100" xml:space="preserve">
<g>
	<path d="M26,73h52V33H26V73z M74.5,55.471c-2.137,0.903-4.278,1.79-6.427,2.669c-0.247-0.805-0.663-1.541-0.931-2.335
		c2.153-0.847,4.258-1.813,6.425-2.618C73.907,53.936,74.219,54.698,74.5,55.471z M67.923,45.768
		c0.657,0.439,1.32,1.099,1.762,1.755c-1.608,1.636-3.241,3.248-4.858,4.873c-0.564-0.618-1.168-1.195-1.771-1.774
		C64.676,49.002,66.289,47.375,67.923,45.768z M59.982,40.958c0.776,0.268,1.532,0.597,2.284,0.922
		c-0.822,2.162-1.771,4.276-2.624,6.428c-0.783-0.29-1.533-0.67-2.329-0.933C58.186,45.231,59.068,43.088,59.982,40.958z
		 M50.749,39.64c0.832-0.112,1.679-0.101,2.511-0.004c0.008,2.311,0.004,4.619,0,6.93c-0.843-0.042-1.686-0.047-2.525,0.023
		C50.771,44.271,50.736,41.954,50.749,39.64z M51.899,62.399c0.217,0,0.427,0.025,0.63,0.068l7.319-4.717l-4.952,7.684
		c-0.02,1.641-1.352,2.965-2.997,2.965c-1.657,0-3-1.343-3-3S50.243,62.399,51.899,62.399z M44.026,40.947
		c0.917,2.135,1.801,4.287,2.674,6.439c-0.808,0.235-1.548,0.642-2.336,0.925c-0.846-2.153-1.799-4.264-2.619-6.427
		C42.499,41.558,43.254,41.233,44.026,40.947z M36.079,45.725c1.595,1.678,3.309,3.242,4.874,4.943
		c-0.651,0.517-1.193,1.148-1.784,1.732c-1.6-1.64-3.238-3.24-4.845-4.87C34.752,46.84,35.449,46.264,36.079,45.725z M30.444,53.187
		c2.166,0.803,4.267,1.771,6.417,2.618c-0.26,0.795-0.691,1.527-0.92,2.338c-2.146-0.89-4.298-1.771-6.441-2.671
		C29.791,54.701,30.113,53.941,30.444,53.187z"/>
	<circle cx="62.8" cy="28.4" r="2.4"/>
	<path d="M69.4,30.8c1.322,0,2.399-1.076,2.399-2.4S70.723,26,69.4,26c-1.323,0-2.4,1.076-2.4,2.4S68.077,30.8,69.4,30.8z"/>
	<circle cx="76" cy="28.4" r="2.4"/>
	<path d="M50,0C22.386,0,0,22.386,0,50s22.386,50,50,50s50-22.386,50-50S77.614,0,50,0z M82,73.399C82,75.388,80.389,77,78.4,77
		H25.6c-1.988,0-3.6-1.612-3.6-3.601V27.601C22,25.612,23.612,24,25.6,24H78.4c1.988,0,3.6,1.612,3.6,3.601V73.399z"/>
</g>
</svg>
