<?xml version="1.0" encoding="utf-8"?>
<!-- Generator: Adobe Illustrator 16.0.0, SVG Export Plug-In . SVG Version: 6.00 Build 0)  -->
<!DOCTYPE svg PUBLIC "-//W3C//DTD SVG 1.1//EN" "http://www.w3.org/Graphics/SVG/1.1/DTD/svg11.dtd">
<svg version="1.1" id="Layer_1" xmlns="http://www.w3.org/2000/svg" xmlns:xlink="http://www.w3.org/1999/xlink" x="0px" y="0px"
	 width="100px" height="100px" viewBox="0 0 100 100" enable-background="new 0 0 100 100" xml:space="preserve">
<g>
	<path d="M58.902,29.92c-7.804-7.803-20.5-7.803-28.303,0s-7.803,20.499,0,28.302s20.5,7.804,28.303,0
		C66.705,50.419,66.705,37.723,58.902,29.92z M46.651,56.201c-0.538,0.479-1.166,0.717-1.883,0.717
		c-0.729,0-1.365-0.235-1.908-0.709c-0.544-0.471-0.815-1.131-0.815-1.979c0-0.74,0.26-1.371,0.779-1.891
		c0.521-0.521,1.156-0.779,1.909-0.779c0.752,0,1.396,0.26,1.927,0.779c0.531,0.52,0.798,1.15,0.798,1.891
		C47.458,55.066,47.189,55.724,46.651,56.201z M47.331,36.325l-0.77,8.836c-0.083,1.052-0.264,1.858-0.538,2.42
		c-0.275,0.562-0.729,0.843-1.362,0.843c-0.645,0-1.093-0.272-1.344-0.815c-0.251-0.545-0.43-1.372-0.539-2.483l-0.573-8.585
		c-0.107-1.673-0.161-2.874-0.161-3.603c0-0.992,0.26-1.767,0.779-2.321c0.52-0.555,1.204-0.834,2.052-0.834
		c1.028,0,1.714,0.356,2.061,1.066c0.347,0.711,0.521,1.736,0.521,3.074C47.458,34.712,47.416,35.513,47.331,36.325z"/>
	<path d="M50,0C22.386,0,0,22.386,0,50s22.386,50,50,50s50-22.386,50-50S77.614,0,50,0z M52,80H38v-3h14V80z M57,74H33v-3h24V74z
		 M78.327,77.647c-1.323,1.324-3.471,1.324-4.796,0L63.457,67.572c-0.983-0.982-1.232-2.415-0.756-3.634l-1.909-1.908
		c-9.445,8.445-24.003,8.137-33.07-0.932c-9.391-9.389-9.391-24.667,0-34.056c9.39-9.391,24.668-9.391,34.057,0
		c9.068,9.066,9.38,23.624,0.932,33.068l1.909,1.911c1.217-0.476,2.651-0.227,3.635,0.755l10.073,10.074
		C79.652,74.176,79.652,76.324,78.327,77.647z"/>
</g>
</svg>
