<?xml version="1.0" encoding="utf-8"?>
<!-- Generator: Adobe Illustrator 16.0.0, SVG Export Plug-In . SVG Version: 6.00 Build 0)  -->
<!DOCTYPE svg PUBLIC "-//W3C//DTD SVG 1.1//EN" "http://www.w3.org/Graphics/SVG/1.1/DTD/svg11.dtd">
<svg version="1.1" id="Layer_1" xmlns="http://www.w3.org/2000/svg" xmlns:xlink="http://www.w3.org/1999/xlink" x="0px" y="0px"
	 width="100px" height="100px" viewBox="0 0 100 100" enable-background="new 0 0 100 100" xml:space="preserve">
<path d="M50,0C22.386,0,0,22.386,0,50s22.386,50,50,50s50-22.386,50-50S77.614,0,50,0z M29,80h-8V62.369c3,0.836,5,1.432,8,1.803V80
	z M40,80h-7V64.546c0,0.041,1.282,0.07,2.046,0.07c1.76,0,2.954-0.108,4.954-0.314V80z M51,80h-7V63.673c2-0.557,5-1.354,7-2.367V80
	z M62,80h-7V59.475c3-1.512,5-3.319,7-5.395V80z M74,80h-8V50.069C70,45.64,72.305,40,73.477,35H74V80z M71.915,33
	c-3.604,23-28.511,35.203-50.131,27.68c-0.751-0.262-0.442-1.223,0.322-1.104C39.479,62.311,54.745,49,57.436,33h-7.989l7.3-6.5
	l7.3-6.433l7.301,6.466l7.3,6.467H71.915z"/>
</svg>
