<?xml version="1.0" encoding="utf-8"?>
<!-- Generator: Adobe Illustrator 16.0.0, SVG Export Plug-In . SVG Version: 6.00 Build 0)  -->
<!DOCTYPE svg PUBLIC "-//W3C//DTD SVG 1.1//EN" "http://www.w3.org/Graphics/SVG/1.1/DTD/svg11.dtd">
<svg version="1.1" id="Layer_1" xmlns="http://www.w3.org/2000/svg" xmlns:xlink="http://www.w3.org/1999/xlink" x="0px" y="0px"
	 width="100px" height="100px" viewBox="0 0 100 100" enable-background="new 0 0 100 100" xml:space="preserve">
<g>
	<path d="M65.666,25.15c0,0,0.291-1.244,2.611-2.613c0,0-2.446-0.373-3.69,1.659C65.417,24.86,65.666,25.15,65.666,25.15z"/>
	<path d="M50,0C22.386,0,0,22.386,0,50s22.386,50,50,50s50-22.386,50-50S77.614,0,50,0z M70.046,22.253
		c1.611,1.298,1.553,4.042-0.128,6.13l-20.027,21.79c-1.682,2.086-1.293,1.993-2.904,0.695c-1.611-1.297-1.62-0.899,0.063-2.985
		l17.035-24.202C65.766,21.595,68.435,20.955,70.046,22.253z M46.23,56.444C40.659,58.75,32.679,56.948,36,56.923
		c3.321-0.025,3.734-0.826,4.816-4.159C42.812,47.503,51.801,54.141,46.23,56.444z M58.793,78.369c-0.79,0.106-8.242,0.01-8.793,0
		c-0.55,0.01-8.003,0.106-8.793,0c-0.82-0.11,0-0.767,1.039-1.531c1.04-0.766,1.148-2.131,1.148-2.131L43.785,72h12.429l0.39,2.708
		c0,0,0.11,1.257,1.15,2.022C58.792,77.496,59.612,78.259,58.793,78.369z M80,67.632C80,68.957,78.926,70,77.6,70H22.4
		c-1.325,0-2.4-1.043-2.4-2.368v-34.8C20,31.506,21.075,30,22.4,30h34.451l-2.535,4H24v29h52V34h-9.199l3.308-4H77.6
		c1.326,0,2.4,1.506,2.4,2.832V67.632z"/>
</g>
</svg>
