<?xml version="1.0" encoding="utf-8"?>
<!-- Generator: Adobe Illustrator 16.0.0, SVG Export Plug-In . SVG Version: 6.00 Build 0)  -->
<!DOCTYPE svg PUBLIC "-//W3C//DTD SVG 1.1//EN" "http://www.w3.org/Graphics/SVG/1.1/DTD/svg11.dtd">
<svg version="1.1" id="Layer_1" xmlns="http://www.w3.org/2000/svg" xmlns:xlink="http://www.w3.org/1999/xlink" x="0px" y="0px"
	 width="100px" height="100px" viewBox="0 0 100 100" enable-background="new 0 0 100 100" xml:space="preserve">
<g>
	<path d="M26,73h52V33H26V73z M41.58,44.644l15.215,6.076c4.383-1.458,8.766-2.916,13.148-4.373c1.205-0.402,4.2-0.301,4.522,0.872
		c0.35,1.271-2.092,3.217-3.292,3.617c-1.796,0.598-3.59,1.194-5.383,1.791c-6.98,2.323-22.768,7.472-22.768,7.472
		c-2.055,0.342-11.017-0.93-9.816-1.33c1.395-0.463,9.082-3.142,13.278-4.593l-6.511-7.818L41.58,44.644z M30.72,53.206l6.702,3.249
		l-4.688,1.65L29.5,54.332L30.72,53.206z"/>
	<path d="M50,0C22.386,0,0,22.386,0,50s22.386,50,50,50s50-22.386,50-50S77.614,0,50,0z M82,73.399C82,75.388,80.389,77,78.4,77
		H25.6c-1.988,0-3.6-1.612-3.6-3.601V27.601C22,25.612,23.612,24,25.6,24H78.4c1.988,0,3.6,1.612,3.6,3.601V73.399z"/>
	<circle cx="62.8" cy="28.4" r="2.4"/>
	<path d="M69.4,30.8c1.322,0,2.399-1.076,2.399-2.4S70.723,26,69.4,26c-1.323,0-2.4,1.076-2.4,2.4S68.077,30.8,69.4,30.8z"/>
	<circle cx="76" cy="28.4" r="2.4"/>
</g>
</svg>
