<?xml version="1.0" encoding="utf-8"?>
<!-- Generator: Adobe Illustrator 16.0.0, SVG Export Plug-In . SVG Version: 6.00 Build 0)  -->
<!DOCTYPE svg PUBLIC "-//W3C//DTD SVG 1.1//EN" "http://www.w3.org/Graphics/SVG/1.1/DTD/svg11.dtd">
<svg version="1.1" id="Layer_1" xmlns="http://www.w3.org/2000/svg" xmlns:xlink="http://www.w3.org/1999/xlink" x="0px" y="0px"
	 width="100px" height="100px" viewBox="0 0 100 100" enable-background="new 0 0 100 100" xml:space="preserve">
<g>
	<circle cx="44.635" cy="39.307" r="6.932"/>
	<path d="M59.107,30.15c-7.983-7.983-20.974-7.983-28.958,0c-7.983,7.983-7.983,20.975,0,28.957c7.983,7.983,20.974,7.983,28.958,0
		C67.091,51.125,67.091,38.134,59.107,30.15z M44.505,57.867c-2.964,0-5.758,0.664-8.225,1.833c1.881-2.165,4.835-3.568,8.167-3.568
		c3.286,0,6.205,1.363,8.091,3.478C50.119,58.496,47.393,57.867,44.505,57.867z M52.753,47.469l-8.146,8.147l-8.13-8.084
		c-4.5-4.499-4.469-11.786,0.032-16.286c4.5-4.5,11.771-4.536,16.271-0.036C57.277,35.709,57.253,42.968,52.753,47.469z"/>
	<path d="M50,0C22.386,0,0,22.386,0,50s22.386,50,50,50s50-22.386,50-50S77.614,0,50,0z M78.983,78.982
		c-1.354,1.355-3.552,1.355-4.907,0L63.77,68.676c-1.006-1.006-1.261-2.473-0.774-3.719l-1.953-1.953
		c-9.663,8.641-24.559,8.325-33.836-0.953c-9.608-9.605-9.608-25.238,0-34.844c9.606-9.608,25.238-9.608,34.844,0
		c9.278,9.276,9.597,24.171,0.955,33.834l1.952,1.953c1.245-0.486,2.714-0.231,3.72,0.775l10.307,10.306
		C80.339,75.431,80.339,77.629,78.983,78.982z"/>
</g>
</svg>
