<?xml version="1.0" encoding="utf-8"?>
<!-- Generator: Adobe Illustrator 16.0.0, SVG Export Plug-In . SVG Version: 6.00 Build 0)  -->
<!DOCTYPE svg PUBLIC "-//W3C//DTD SVG 1.1//EN" "http://www.w3.org/Graphics/SVG/1.1/DTD/svg11.dtd">
<svg version="1.1" id="Layer_1" xmlns="http://www.w3.org/2000/svg" xmlns:xlink="http://www.w3.org/1999/xlink" x="0px" y="0px"
	 width="100px" height="100px" viewBox="0 0 100 100" enable-background="new 0 0 100 100" xml:space="preserve">
<g>
	<path d="M69.4,30.8c1.322,0,2.399-1.076,2.399-2.4S70.723,26,69.4,26c-1.323,0-2.4,1.076-2.4,2.4S68.077,30.8,69.4,30.8z"/>
	<path d="M26,73h52V33H26V73z M61.38,62.979c-0.009,1.873,0.002,3.747-0.005,5.62c-2.556-2.738-5.114-5.475-7.666-8.216
		c0.51-0.402,0.867-0.947,1.232-1.475c0.433,0.099,0.842,0.285,1.275,0.381c0.844,0.192,1.756,0.063,2.504-0.375
		c1.003-0.572,1.626-1.678,1.707-2.817c2.203,2.279,4.38,4.585,6.572,6.876C65.126,62.982,63.253,62.97,61.38,62.979z M44.375,47.69
		c-0.416-0.582-0.843-1.155-1.252-1.742c-0.214-0.321-0.06-0.793,0.305-0.922c0.67-0.243,1.353-0.449,2.031-0.668
		c0.48-0.166,0.841-0.625,0.906-1.128c0.026-0.763-0.009-1.527,0.02-2.289c0.019-0.382,0.423-0.658,0.788-0.551
		c0.683,0.202,1.356,0.437,2.037,0.649c0.553,0.175,1.2-0.063,1.523-0.54c0.357-0.501,0.723-0.997,1.084-1.497
		c0.11-0.16,0.245-0.318,0.438-0.375c0.272-0.097,0.567,0.055,0.726,0.28c0.399,0.538,0.791,1.082,1.186,1.625
		c0.332,0.458,0.965,0.674,1.506,0.504c0.678-0.219,1.352-0.45,2.033-0.654c0.371-0.108,0.768,0.183,0.785,0.565
		c0.014,0.701,0.018,1.403,0.012,2.104c-0.012,0.557,0.363,1.092,0.881,1.289c0.69,0.227,1.388,0.438,2.071,0.685
		c0.362,0.128,0.512,0.601,0.301,0.918c-0.4,0.591-0.837,1.158-1.252,1.738c-0.306,0.432-0.316,1.048-0.04,1.497
		c0.421,0.594,0.863,1.173,1.277,1.771c0.221,0.313,0.102,0.791-0.261,0.938c-0.68,0.246-1.376,0.45-2.062,0.686
		c-0.486,0.164-0.854,0.63-0.908,1.137c-0.012,0.745-0.006,1.49-0.017,2.235c0.003,0.395-0.398,0.713-0.782,0.604
		c-0.684-0.195-1.353-0.437-2.03-0.646c-0.529-0.177-1.159,0.027-1.489,0.475c-0.426,0.57-0.834,1.155-1.265,1.722
		c-0.234,0.31-0.739,0.314-0.975,0.003c-0.432-0.567-0.841-1.151-1.268-1.724c-0.338-0.457-0.984-0.652-1.521-0.463
		c-0.65,0.207-1.296,0.426-1.948,0.624c-0.395,0.142-0.836-0.176-0.837-0.592c-0.008-0.686-0.005-1.371-0.003-2.058
		c0.012-0.572-0.373-1.125-0.913-1.312c-0.673-0.228-1.354-0.438-2.026-0.669c-0.37-0.118-0.531-0.602-0.313-0.922
		c0.394-0.594,0.833-1.158,1.247-1.738C44.696,48.8,44.695,48.142,44.375,47.69z M42.843,56.856c0.375,1.433,1.75,2.526,3.238,2.518
		c0.734,0.036,1.411-0.274,2.101-0.468c0.489,0.692,0.988,1.417,1.757,1.827c-2.438,2.622-4.877,5.243-7.314,7.865
		c-0.007-1.873,0.005-3.746-0.005-5.619c-1.874-0.012-3.747,0.003-5.62-0.007C38.949,60.935,40.873,58.872,42.843,56.856z"/>
	<circle cx="62.8" cy="28.4" r="2.4"/>
	<circle cx="76" cy="28.4" r="2.4"/>
	<path d="M50,0C22.386,0,0,22.386,0,50s22.386,50,50,50s50-22.386,50-50S77.614,0,50,0z M82,73.399C82,75.388,80.389,77,78.4,77
		H25.6c-1.988,0-3.6-1.612-3.6-3.601V27.601C22,25.612,23.612,24,25.6,24H78.4c1.988,0,3.6,1.612,3.6,3.601V73.399z"/>
</g>
</svg>
