<?xml version="1.0" encoding="utf-8"?>
<!-- Generator: Adobe Illustrator 16.0.0, SVG Export Plug-In . SVG Version: 6.00 Build 0)  -->
<!DOCTYPE svg PUBLIC "-//W3C//DTD SVG 1.1//EN" "http://www.w3.org/Graphics/SVG/1.1/DTD/svg11.dtd">
<svg version="1.1" id="Layer_1" xmlns="http://www.w3.org/2000/svg" xmlns:xlink="http://www.w3.org/1999/xlink" x="0px" y="0px"
	 width="100px" height="100px" viewBox="0 0 100 100" enable-background="new 0 0 100 100" xml:space="preserve">
<path d="M50,0C22.386,0,0,22.386,0,50s22.386,50,50,50s50-22.386,50-50S77.614,0,50,0z M46.908,73.906
	C32.071,73.906,20,61.835,20,46.999c0-14.837,12.071-26.908,26.908-26.908c14.836,0,26.908,12.071,26.908,26.908
	c0,3.985-0.878,7.767-2.439,11.171c-1.067-0.586-2.175-1.195-3.299-1.811c1.271-2.864,1.983-6.031,1.983-9.361
	c0-12.767-10.386-23.153-23.153-23.153c-12.766,0-23.153,10.387-23.153,23.153c0,12.767,10.387,23.153,23.153,23.153
	c3.43,0,6.686-0.756,9.619-2.1l1.809,3.3C54.865,72.986,50.992,73.906,46.908,73.906z M46.909,36.36
	c-5.866,0-10.638,4.772-10.638,10.638c0,5.866,4.772,10.637,10.638,10.637c1.251,0,2.447-0.229,3.563-0.626l1.826,3.33
	c-1.666,0.676-3.484,1.051-5.389,1.051c-7.937,0-14.392-6.457-14.392-14.392c0-7.936,6.456-14.393,14.392-14.393
	c7.937,0,14.392,6.457,14.392,14.393c0,1.806-0.337,3.534-0.947,5.128c-1.166-0.638-2.288-1.252-3.339-1.826
	c0.341-1.041,0.532-2.149,0.532-3.302C57.547,41.132,52.775,36.36,46.909,36.36z M65.885,79.909L48.726,48.622
	C49.005,48.74,79.757,65.595,80,65.783c-4.699,0.004-9.401-0.003-14.103,0.004C65.892,70.494,65.92,75.202,65.885,79.909z"/>
</svg>
