<?xml version="1.0" encoding="utf-8"?>
<!-- Generator: Adobe Illustrator 16.0.0, SVG Export Plug-In . SVG Version: 6.00 Build 0)  -->
<!DOCTYPE svg PUBLIC "-//W3C//DTD SVG 1.1//EN" "http://www.w3.org/Graphics/SVG/1.1/DTD/svg11.dtd">
<svg version="1.1" id="Layer_1" xmlns="http://www.w3.org/2000/svg" xmlns:xlink="http://www.w3.org/1999/xlink" x="0px" y="0px"
	 width="100px" height="100px" viewBox="0 0 100 100" enable-background="new 0 0 100 100" xml:space="preserve">
<g>
	<path d="M53.126,52.373c-0.282,0.012-0.568,0.164-0.858,0.453l-4.3,4.301l-2.592-2.592l3.829-3.828
		c0.286-0.286,0.432-0.563,0.438-0.83c0.006-0.268-0.094-0.505-0.301-0.712s-0.443-0.305-0.709-0.292
		c-0.265,0.013-0.539,0.16-0.82,0.441l-3.828,3.828l-2.237-2.236l4.158-4.158c0.295-0.294,0.448-0.578,0.46-0.852
		s-0.088-0.518-0.304-0.733c-0.211-0.212-0.454-0.312-0.727-0.299c-0.273,0.013-0.557,0.167-0.852,0.461l-4.873,4.873
		c-0.262,0.261-0.437,0.514-0.528,0.757c-0.092,0.245-0.092,0.491-0.003,0.737c0.09,0.246,0.267,0.501,0.532,0.768l6.849,6.849
		c0.397,0.396,0.774,0.598,1.128,0.599c0.354,0.002,0.731-0.198,1.134-0.599l5.014-5.016c0.292-0.292,0.441-0.577,0.456-0.859
		c0.012-0.281-0.09-0.53-0.305-0.745C53.661,52.466,53.407,52.36,53.126,52.373z"/>
	<path d="M43.284,59.275c-0.459-0.46-0.929-0.768-1.41-0.92c-0.481-0.154-0.971-0.188-1.469-0.103
		c-0.5,0.085-1.029,0.262-1.592,0.534c-0.561,0.271-1.157,0.604-1.792,0.997c-0.514,0.308-0.886,0.522-1.119,0.646
		c-0.232,0.124-0.483,0.226-0.751,0.305c-0.269,0.08-0.52,0.103-0.752,0.068c-0.232-0.033-0.439-0.141-0.622-0.323
		c-0.294-0.294-0.399-0.691-0.316-1.192c0.082-0.502,0.362-0.99,0.839-1.468c0.514-0.513,0.983-0.789,1.408-0.829
		c0.424-0.038,0.892,0.031,1.402,0.21c0.368,0.111,0.661,0.165,0.876,0.161c0.216-0.005,0.428-0.113,0.64-0.324
		c0.232-0.233,0.337-0.515,0.316-0.844c-0.02-0.332-0.141-0.609-0.36-0.828c-0.24-0.24-0.55-0.424-0.926-0.553
		c-0.376-0.128-0.814-0.174-1.314-0.135s-1.023,0.194-1.569,0.462c-0.547,0.27-1.1,0.685-1.66,1.244
		c-0.701,0.7-1.204,1.412-1.513,2.141c-0.309,0.727-0.404,1.422-0.289,2.084c0.116,0.663,0.425,1.246,0.926,1.748
		c0.526,0.524,1.096,0.836,1.71,0.931c0.613,0.095,1.242,0.024,1.889-0.211c0.646-0.237,1.374-0.605,2.181-1.106
		c0.601-0.377,1.097-0.662,1.488-0.855c0.393-0.192,0.774-0.286,1.148-0.283c0.374,0.006,0.711,0.158,1.013,0.46
		c0.381,0.383,0.528,0.871,0.442,1.468c-0.088,0.596-0.405,1.168-0.952,1.715c-0.397,0.396-0.781,0.653-1.153,0.773
		c-0.37,0.118-0.721,0.146-1.051,0.087c-0.329-0.062-0.696-0.178-1.103-0.352c-0.339-0.149-0.639-0.22-0.897-0.208
		c-0.26,0.011-0.487,0.113-0.681,0.308c-0.241,0.24-0.358,0.518-0.354,0.832c0.004,0.316,0.119,0.585,0.342,0.809
		c0.384,0.385,0.911,0.652,1.578,0.803c0.667,0.148,1.33,0.138,1.988-0.032c0.924-0.244,1.836-0.815,2.735-1.714
		c0.75-0.75,1.274-1.523,1.573-2.319c0.297-0.797,0.369-1.554,0.212-2.273C44.189,60.463,43.835,59.826,43.284,59.275z"/>
	<path d="M60.013,38.88c-0.953-0.954-1.959-1.609-3.013-1.968s-2.111-0.391-3.173-0.096c-1.06,0.295-2.063,0.915-3.008,1.858
		c-0.695,0.696-1.208,1.425-1.537,2.19s-0.48,1.543-0.451,2.334c0.029,0.791,0.234,1.58,0.619,2.364
		c0.382,0.785,0.924,1.527,1.624,2.228c0.684,0.684,1.417,1.224,2.198,1.62c0.78,0.396,1.567,0.614,2.363,0.655
		c0.797,0.042,1.59-0.104,2.384-0.438s1.548-0.855,2.261-1.569c0.717-0.717,1.24-1.465,1.57-2.244
		c0.332-0.778,0.479-1.569,0.438-2.373c-0.042-0.805-0.256-1.59-0.642-2.355C61.262,40.32,60.717,39.584,60.013,38.88z
		 M59.747,44.946c-0.159,0.631-0.475,1.184-0.948,1.656c-0.367,0.37-0.774,0.639-1.222,0.811c-0.443,0.172-0.924,0.24-1.437,0.203
		c-0.516-0.037-1.047-0.199-1.596-0.488c-0.549-0.288-1.082-0.691-1.599-1.209c-0.515-0.514-0.913-1.042-1.194-1.584
		c-0.282-0.542-0.443-1.06-0.481-1.55c-0.04-0.49,0.027-0.962,0.201-1.414c0.175-0.452,0.445-0.862,0.815-1.231
		c0.517-0.518,1.102-0.851,1.751-1c0.651-0.148,1.329-0.087,2.034,0.187c0.703,0.273,1.388,0.744,2.056,1.411
		c0.722,0.722,1.21,1.445,1.47,2.17C59.857,43.635,59.906,44.313,59.747,44.946z"/>
	<path d="M50,0C22.386,0,0,22.386,0,50s22.386,50,50,50s50-22.386,50-50S77.614,0,50,0z M76.871,49.241L47.192,78.919
		c-1.442,1.441-3.781,1.441-5.222,0L21.082,58.03c-1.442-1.441-1.442-3.78,0-5.223L50.76,23.129c1.441-1.441,16.314-1.441,17.755,0
		l2.089,2.089l-2.623,2.623c-1.731-0.364-3.606,0.124-4.95,1.468c-2.115,2.115-2.115,5.545,0,7.659c2.115,2.115,5.545,2.115,7.659,0
		c1.345-1.344,1.833-3.218,1.469-4.949l2.622-2.623l2.089,2.089C78.312,32.928,78.312,47.799,76.871,49.241z M79.567,22.521
		L68.427,33.662c-0.576,0.577-1.511,0.577-2.089,0c-0.576-0.577-0.576-1.512,0-2.088l11.142-11.141c0.574-0.577,1.512-0.577,2.088,0
		C80.144,21.008,80.144,21.943,79.567,22.521z"/>
</g>
</svg>
