<?xml version="1.0" encoding="utf-8"?>
<!-- Generator: Adobe Illustrator 16.0.0, SVG Export Plug-In . SVG Version: 6.00 Build 0)  -->
<!DOCTYPE svg PUBLIC "-//W3C//DTD SVG 1.1//EN" "http://www.w3.org/Graphics/SVG/1.1/DTD/svg11.dtd">
<svg version="1.1" id="Layer_1" xmlns="http://www.w3.org/2000/svg" xmlns:xlink="http://www.w3.org/1999/xlink" x="0px" y="0px"
	 width="100px" height="100px" viewBox="0 0 100 100" enable-background="new 0 0 100 100" xml:space="preserve">
<g>
	<path d="M50,100C22.43,100,0,77.57,0,50S22.43,0,50,0s50,22.43,50,50S77.57,100,50,100z M50,6C25.738,6,6,25.738,6,50
		s19.738,44,44,44s44-19.738,44-44S74.262,6,50,6z"/>
</g>
<path d="M57.755,72.413c-1.04-0.766-1.15-1.914-1.15-1.914l-0.39-2.492H43.786l-0.391,2.491c0,0-0.108,1.149-1.148,1.915
	c-1.039,0.765-1.859,1.421-1.039,1.531c0.79,0.106,8.244,0.01,8.793,0c0.551,0.01,8.002,0.106,8.793,0
	C59.613,73.834,58.793,73.18,57.755,72.413z"/>
<g>
	<rect x="33.65" y="46.104" width="4.8" height="9"/>
	<rect x="43.851" y="41.904" width="4.8" height="13.2"/>
	<rect x="53.451" y="46.104" width="4.8" height="9"/>
	<rect x="62.451" y="41.904" width="4.8" height="13.2"/>
	<polygon points="46.789,36.84 56.492,43.055 69.904,33.351 68.497,31.407 56.41,40.152 46.913,34.067 30.096,42.715 31.207,44.842 
			"/>
</g>
<path d="M77.6,26.006H22.4c-1.325,0-2.4,1.075-2.4,2.4v34.8c0,1.325,1.075,2.399,2.4,2.399h55.2c1.326,0,2.4-1.074,2.4-2.399v-34.8
	C80,27.081,78.926,26.006,77.6,26.006z M76.4,58.406h-52.8v-28.8h52.8V58.406z"/>
</svg>
