<?xml version="1.0" encoding="utf-8"?>
<!-- Generator: Adobe Illustrator 16.0.0, SVG Export Plug-In . SVG Version: 6.00 Build 0)  -->
<!DOCTYPE svg PUBLIC "-//W3C//DTD SVG 1.1//EN" "http://www.w3.org/Graphics/SVG/1.1/DTD/svg11.dtd">
<svg version="1.1" id="Layer_1" xmlns="http://www.w3.org/2000/svg" xmlns:xlink="http://www.w3.org/1999/xlink" x="0px" y="0px"
	 width="100px" height="100px" viewBox="0 0 100 100" enable-background="new 0 0 100 100" xml:space="preserve">
<g>
	<path d="M50,100C22.43,100,0,77.57,0,50S22.43,0,50,0s50,22.43,50,50S77.57,100,50,100z M50,6C25.738,6,6,25.738,6,50
		s19.738,44,44,44s44-19.738,44-44S74.262,6,50,6z"/>
</g>
<g>
	<g>
		<path d="M45.051,55.459v3.671L32,53.474v-3.14l13.051-5.656v3.697l-9.094,3.504L45.051,55.459z"/>
		<path d="M53.12,44.6l-3.634,14.958c-0.12,0.493-0.226,0.883-0.316,1.168s-0.229,0.509-0.415,0.667
			c-0.186,0.161-0.457,0.24-0.811,0.24c-0.882,0-1.324-0.382-1.324-1.141c0-0.199,0.087-0.696,0.26-1.492l3.62-14.958
			c0.19-0.795,0.371-1.34,0.544-1.634c0.174-0.294,0.511-0.441,1.013-0.441c0.433,0,0.763,0.104,0.992,0.312
			c0.229,0.208,0.344,0.494,0.344,0.856C53.393,43.402,53.301,43.891,53.12,44.6z"/>
		<path d="M68,53.474l-13.051,5.683v-3.672l9.12-3.58l-9.12-3.529V44.73L68,50.36V53.474z"/>
	</g>
	<path d="M76.4,23.6H23.6c-1.988,0-3.6,1.612-3.6,3.6v45.6c0,1.987,1.612,3.601,3.6,3.601h52.8c1.988,0,3.6-1.613,3.6-3.601V27.2
		C80,25.211,78.389,23.6,76.4,23.6z M67.4,26c1.322,0,2.399,1.076,2.399,2.4s-1.077,2.4-2.399,2.4c-1.323,0-2.4-1.076-2.4-2.4
		S66.077,26,67.4,26z M60.8,26c1.323,0,2.4,1.076,2.4,2.4s-1.077,2.4-2.4,2.4S58.4,29.724,58.4,28.4S59.477,26,60.8,26z M76.4,72.8
		H23.6V33.2h52.8V72.8z M74,30.8c-1.323,0-2.4-1.076-2.4-2.4S72.677,26,74,26s2.4,1.076,2.4,2.4S75.323,30.8,74,30.8z"/>
</g>
</svg>
