<?xml version="1.0" encoding="utf-8"?>
<!-- Generator: Adobe Illustrator 16.0.0, SVG Export Plug-In . SVG Version: 6.00 Build 0)  -->
<!DOCTYPE svg PUBLIC "-//W3C//DTD SVG 1.1//EN" "http://www.w3.org/Graphics/SVG/1.1/DTD/svg11.dtd">
<svg version="1.1" id="Layer_1" xmlns="http://www.w3.org/2000/svg" xmlns:xlink="http://www.w3.org/1999/xlink" x="0px" y="0px"
	 width="100px" height="100px" viewBox="0 0 100 100" enable-background="new 0 0 100 100" xml:space="preserve">
<g>
	<g>
		<path d="M50,100C22.43,100,0,77.57,0,50C0,22.43,22.43,0,50,0c27.57,0,50,22.43,50,50C100,77.57,77.57,100,50,100z M50,6
			C25.738,6,6,25.738,6,50c0,24.262,19.738,44,44,44c24.262,0,44-19.738,44-44C94,25.738,74.262,6,50,6z"/>
	</g>
	<path d="M61.777,27.043c-9.389-9.391-24.667-9.391-34.056,0c-9.391,9.389-9.391,24.667,0,34.057
		c9.067,9.067,23.625,9.377,33.07,0.932l1.909,1.908c-0.478,1.219-0.228,2.65,0.756,3.633l10.073,10.076
		c1.326,1.324,3.474,1.324,4.797,0c1.324-1.324,1.324-3.473,0-4.797L68.254,62.777c-0.982-0.981-2.418-1.23-3.635-0.756l-1.909-1.91
		C71.158,50.667,70.848,36.109,61.777,27.043z M30.599,58.223c-7.803-7.804-7.803-20.5,0-28.303c7.803-7.803,20.5-7.803,28.303,0
		s7.803,20.499,0,28.303C51.1,66.025,38.402,66.023,30.599,58.223z"/>
	<g>
		<path d="M42.778,45.125l-0.573-8.585c-0.107-1.673-0.161-2.874-0.161-3.603c0-0.992,0.26-1.767,0.779-2.321
			c0.52-0.555,1.204-0.834,2.052-0.834c1.028,0,1.714,0.356,2.061,1.066c0.347,0.711,0.521,1.736,0.521,3.074
			c0,0.789-0.042,1.59-0.126,2.402l-0.77,8.836c-0.083,1.052-0.264,1.858-0.538,2.42c-0.275,0.562-0.729,0.843-1.362,0.843
			c-0.645,0-1.093-0.272-1.344-0.815C43.065,47.063,42.887,46.236,42.778,45.125z M44.768,56.918c-0.729,0-1.365-0.234-1.908-0.709
			c-0.544-0.471-0.815-1.131-0.815-1.979c0-0.74,0.26-1.371,0.779-1.892c0.521-0.521,1.156-0.778,1.909-0.778
			c0.752,0,1.396,0.26,1.927,0.778c0.531,0.521,0.798,1.149,0.798,1.892c0,0.836-0.269,1.494-0.807,1.972
			S45.485,56.918,44.768,56.918z"/>
	</g>
	<g>
		<rect x="32.541" y="71.369" width="24.421" height="2.714"/>
	</g>
	<g>
		<rect x="37.967" y="77.286" width="13.568" height="2.714"/>
	</g>
</g>
</svg>
