<?xml version="1.0" encoding="utf-8"?>
<!-- Generator: Adobe Illustrator 16.0.0, SVG Export Plug-In . SVG Version: 6.00 Build 0)  -->
<!DOCTYPE svg PUBLIC "-//W3C//DTD SVG 1.1//EN" "http://www.w3.org/Graphics/SVG/1.1/DTD/svg11.dtd">
<svg version="1.1" id="Layer_1" xmlns="http://www.w3.org/2000/svg" xmlns:xlink="http://www.w3.org/1999/xlink" x="0px" y="0px"
	 width="100px" height="100px" viewBox="0 0 100 100" enable-background="new 0 0 100 100" xml:space="preserve">
<g>
	<g>
		<path d="M50,100C22.43,100,0,77.57,0,50C0,22.43,22.43,0,50,0c27.57,0,50,22.43,50,50C100,77.57,77.57,100,50,100z M50,6
			C25.738,6,6,25.738,6,50c0,24.262,19.738,44,44,44c24.262,0,44-19.738,44-44C94,25.738,74.262,6,50,6z"/>
	</g>
	<g>
		<g>
			<path d="M67.611,27.254c-9.724-9.724-25.437-9.646-35.162,0.079c-9.725,9.725-9.793,25.472-0.07,35.197L49.952,80l17.605-17.608
				C77.282,52.666,77.335,36.979,67.611,27.254z M49.999,66.054c-11.762,0-21.299-9.535-21.299-21.298
				c0-11.766,9.537-21.303,21.299-21.303c11.765,0,21.301,9.537,21.301,21.303C71.296,56.519,61.764,66.054,49.999,66.054z"/>
			<g id="_x23_000000ff_8_">
				<path d="M48.815,29.604c0.91-0.779,2.507-0.518,3.023,0.594c1.047,2.593,2.074,5.193,3.114,7.789
					c0.019,0.088,0.101,0.118,0.182,0.118c2.603,0.178,5.203,0.39,7.807,0.577c0.745,0.015,1.486,0.426,1.823,1.104
					c0.419,0.761,0.278,1.817-0.405,2.381c-2.1,1.726-4.179,3.474-6.271,5.205c-0.059,0.05-0.117,0.102-0.157,0.168
					c0.592,2.574,1.254,5.136,1.874,7.706c0.469,1.289-0.63,2.808-2.01,2.707c-0.478-0.006-0.894-0.267-1.272-0.526
					c-2.053-1.296-4.105-2.594-6.16-3.889c-0.174-0.107-0.34-0.242-0.536-0.305c-2.329,1.401-4.622,2.868-6.943,4.281
					c-0.639,0.381-1.488,0.375-2.115-0.027c-0.661-0.393-1.067-1.204-0.912-1.971c0.668-2.747,1.421-5.481,2.06-8.233
					c-1.887-1.624-3.802-3.215-5.697-4.828c-0.429-0.348-0.895-0.712-1.081-1.254c-0.456-1.089,0.265-2.508,1.458-2.678
					c2.839-0.24,5.698-0.341,8.531-0.602c0.979-2.341,1.922-4.7,2.891-7.047C48.195,30.405,48.404,29.917,48.815,29.604z"/>
			</g>
		</g>
	</g>
</g>
</svg>
