<?xml version="1.0" encoding="utf-8"?>
<!-- Generator: Adobe Illustrator 16.0.0, SVG Export Plug-In . SVG Version: 6.00 Build 0)  -->
<!DOCTYPE svg PUBLIC "-//W3C//DTD SVG 1.1//EN" "http://www.w3.org/Graphics/SVG/1.1/DTD/svg11.dtd">
<svg version="1.1" id="Layer_1" xmlns="http://www.w3.org/2000/svg" xmlns:xlink="http://www.w3.org/1999/xlink" x="0px" y="0px"
	 width="100px" height="100px" viewBox="0 0 100 100" enable-background="new 0 0 100 100" xml:space="preserve">
<g>
	<path d="M50,100C22.43,100,0,77.57,0,50S22.43,0,50,0s50,22.43,50,50S77.57,100,50,100z M50,6C25.738,6,6,25.738,6,50
		s19.738,44,44,44s44-19.738,44-44S74.262,6,50,6z"/>
</g>
<path d="M62.05,27.207c-9.605-9.608-25.237-9.608-34.844,0c-9.608,9.606-9.608,25.238,0,34.844
	c9.277,9.278,24.173,9.594,33.836,0.953l1.953,1.953c-0.486,1.246-0.231,2.713,0.774,3.719l10.307,10.307
	c1.355,1.355,3.553,1.355,4.907,0c1.355-1.354,1.355-3.552,0-4.907L68.677,63.77c-1.006-1.007-2.475-1.262-3.72-0.775l-1.952-1.953
	C71.646,51.378,71.328,36.483,62.05,27.207z M30.15,59.107c-7.983-7.982-7.983-20.974,0-28.957c7.983-7.983,20.974-7.983,28.958,0
	c7.983,7.983,7.983,20.975,0,28.957C51.124,67.091,38.133,67.091,30.15,59.107z"/>
<path d="M52.778,31.21c-4.5-4.5-11.77-4.464-16.271,0.036c-4.5,4.5-4.532,11.787-0.032,16.286l8.13,8.084l8.146-8.147
	C57.253,42.968,57.277,35.709,52.778,31.21z M44.635,46.239c-3.828,0-6.932-3.103-6.932-6.931c0-3.83,3.104-6.933,6.932-6.933
	c3.83,0,6.932,3.104,6.932,6.933C51.567,43.135,48.465,46.239,44.635,46.239z"/>
<path d="M44.505,57.867c2.888,0,5.614,0.629,8.033,1.742c-1.886-2.114-4.805-3.478-8.091-3.478c-3.332,0-6.286,1.403-8.167,3.568
	C38.747,58.531,41.541,57.867,44.505,57.867z"/>
</svg>
