<?xml version="1.0" encoding="utf-8"?>
<!-- Generator: Adobe Illustrator 16.0.0, SVG Export Plug-In . SVG Version: 6.00 Build 0)  -->
<!DOCTYPE svg PUBLIC "-//W3C//DTD SVG 1.1//EN" "http://www.w3.org/Graphics/SVG/1.1/DTD/svg11.dtd">
<svg version="1.1" id="Layer_1" xmlns="http://www.w3.org/2000/svg" xmlns:xlink="http://www.w3.org/1999/xlink" x="0px" y="0px"
	 width="100px" height="100px" viewBox="0 0 100 100" enable-background="new 0 0 100 100" xml:space="preserve">
<g>
	<g>
		<path d="M50,100C22.43,100,0,77.57,0,50C0,22.43,22.43,0,50,0c27.57,0,50,22.43,50,50C100,77.57,77.57,100,50,100z M50,6
			C25.738,6,6,25.738,6,50c0,24.262,19.738,44,44,44c24.262,0,44-19.738,44-44C94,25.738,74.262,6,50,6z"/>
	</g>
	<g>
		<path d="M66.338,33.662c0.578,0.577,1.514,0.577,2.09,0l11.141-11.14c0.576-0.577,0.576-1.513,0-2.089
			c-0.576-0.577-1.514-0.577-2.088,0l-11.143,11.14C65.762,32.15,65.762,33.084,66.338,33.662z"/>
		<g>
			<path d="M58.129,40.737c-0.668-0.667-1.354-1.137-2.057-1.411c-0.705-0.274-1.383-0.335-2.033-0.187
				c-0.65,0.148-1.234,0.482-1.752,1c-0.369,0.369-0.641,0.779-0.814,1.231c-0.175,0.452-0.242,0.923-0.201,1.414
				c0.037,0.49,0.199,1.007,0.48,1.55c0.281,0.542,0.68,1.071,1.193,1.585c0.518,0.518,1.051,0.921,1.601,1.209
				c0.548,0.288,1.079,0.451,1.595,0.487c0.514,0.038,0.993-0.03,1.438-0.202c0.446-0.172,0.853-0.442,1.222-0.812
				c0.473-0.472,0.788-1.025,0.947-1.656c0.159-0.632,0.109-1.311-0.148-2.039C59.338,42.183,58.85,41.459,58.129,40.737z"/>
			<path d="M76.87,31.485l-2.089-2.089l-2.622,2.623c0.364,1.731-0.124,3.605-1.468,4.949c-2.115,2.115-5.545,2.115-7.66,0
				c-2.115-2.114-2.115-5.544,0-7.659c1.344-1.344,3.219-1.832,4.949-1.468l2.623-2.623l-2.088-2.089
				c-1.441-1.441-16.313-1.441-17.756,0l-29.678,29.68c-1.442,1.441-1.442,3.78,0,5.223L41.97,78.919c1.441,1.44,3.78,1.44,5.222,0
				l29.679-29.678C78.313,47.799,78.313,32.928,76.87,31.485z M44.133,63.461c-0.299,0.794-0.823,1.566-1.573,2.316
				c-0.899,0.9-1.812,1.472-2.734,1.716c-0.659,0.17-1.322,0.181-1.988,0.03c-0.667-0.148-1.193-0.416-1.578-0.801
				c-0.224-0.225-0.338-0.492-0.342-0.81c-0.005-0.313,0.113-0.593,0.354-0.832c0.194-0.194,0.421-0.298,0.681-0.308
				c0.259-0.012,0.559,0.059,0.897,0.207c0.407,0.174,0.773,0.291,1.103,0.353s0.68,0.03,1.05-0.087
				c0.372-0.119,0.756-0.377,1.153-0.773c0.547-0.547,0.864-1.117,0.952-1.715c0.086-0.596-0.061-1.085-0.442-1.468
				c-0.302-0.302-0.64-0.454-1.013-0.46c-0.374-0.003-0.755,0.091-1.148,0.283c-0.391,0.193-0.887,0.479-1.488,0.855
				c-0.808,0.5-1.535,0.869-2.181,1.105c-0.647,0.234-1.276,0.307-1.889,0.212c-0.614-0.097-1.185-0.406-1.71-0.933
				c-0.501-0.5-0.81-1.084-0.925-1.748c-0.115-0.662-0.02-1.356,0.289-2.084c0.309-0.729,0.812-1.439,1.513-2.141
				c0.56-0.561,1.112-0.975,1.66-1.242c0.547-0.27,1.07-0.424,1.569-0.463c0.5-0.039,0.938,0.006,1.314,0.135
				c0.376,0.129,0.686,0.313,0.926,0.553c0.219,0.219,0.34,0.496,0.36,0.826c0.021,0.332-0.084,0.613-0.316,0.848
				c-0.212,0.21-0.424,0.316-0.64,0.322c-0.215,0.004-0.508-0.051-0.877-0.162c-0.51-0.178-0.978-0.248-1.402-0.209
				s-0.894,0.316-1.408,0.828c-0.477,0.479-0.756,0.967-0.838,1.467c-0.083,0.503,0.022,0.9,0.316,1.193
				c0.183,0.185,0.39,0.291,0.623,0.324c0.232,0.033,0.482,0.012,0.751-0.068s0.52-0.18,0.751-0.305
				c0.232-0.123,0.605-0.339,1.119-0.646c0.635-0.393,1.231-0.727,1.792-0.998c0.563-0.27,1.092-0.449,1.591-0.533
				c0.499-0.085,0.989-0.051,1.469,0.104c0.482,0.151,0.951,0.459,1.411,0.92c0.551,0.551,0.905,1.188,1.061,1.912
				C44.501,61.906,44.43,62.664,44.133,63.461z M53.734,54.294l-5.014,5.017c-0.403,0.4-0.781,0.601-1.134,0.599
				c-0.354-0.001-0.731-0.202-1.128-0.599l-6.848-6.85c-0.266-0.268-0.442-0.521-0.532-0.768c-0.089-0.246-0.089-0.492,0.003-0.737
				c0.091-0.245,0.267-0.497,0.529-0.758l4.873-4.873c0.294-0.294,0.578-0.448,0.851-0.461c0.273-0.012,0.516,0.087,0.728,0.299
				c0.215,0.215,0.316,0.46,0.305,0.733c-0.013,0.274-0.166,0.557-0.46,0.852l-4.158,4.158l2.237,2.236l3.828-3.828
				c0.282-0.281,0.556-0.428,0.82-0.441c0.266-0.013,0.502,0.084,0.709,0.292c0.207,0.208,0.307,0.444,0.301,0.712
				c-0.006,0.267-0.152,0.544-0.438,0.83l-3.829,3.828l2.592,2.592l4.3-4.301c0.289-0.29,0.576-0.44,0.857-0.454
				c0.281-0.012,0.535,0.094,0.76,0.316c0.215,0.217,0.315,0.465,0.305,0.746C54.175,53.717,54.023,54.003,53.734,54.294z
				 M61.85,45.816c-0.33,0.778-0.854,1.526-1.57,2.243c-0.713,0.713-1.467,1.235-2.26,1.569c-0.793,0.333-1.588,0.48-2.383,0.438
				c-0.798-0.042-1.584-0.26-2.365-0.655c-0.78-0.396-1.515-0.936-2.196-1.62c-0.7-0.701-1.242-1.443-1.625-2.228
				c-0.384-0.785-0.59-1.574-0.619-2.365c-0.029-0.792,0.122-1.569,0.451-2.334c0.33-0.764,0.843-1.494,1.538-2.19
				c0.943-0.944,1.947-1.563,3.009-1.858s2.118-0.263,3.172,0.097c1.054,0.358,2.06,1.014,3.013,1.967
				c0.703,0.704,1.25,1.439,1.633,2.207c0.387,0.766,0.601,1.551,0.642,2.356C62.328,44.246,62.182,45.038,61.85,45.816z"/>
		</g>
	</g>
</g>
</svg>
