<?xml version="1.0" encoding="utf-8"?>
<!-- Generator: Adobe Illustrator 16.0.0, SVG Export Plug-In . SVG Version: 6.00 Build 0)  -->
<!DOCTYPE svg PUBLIC "-//W3C//DTD SVG 1.1//EN" "http://www.w3.org/Graphics/SVG/1.1/DTD/svg11.dtd">
<svg version="1.1" id="Layer_1" xmlns="http://www.w3.org/2000/svg" xmlns:xlink="http://www.w3.org/1999/xlink" x="0px" y="0px"
	 width="100px" height="100px" viewBox="0 0 100 100" enable-background="new 0 0 100 100" xml:space="preserve">
<g>
	<g>
		<path d="M50,100C22.43,100,0,77.57,0,50C0,22.43,22.43,0,50,0c27.57,0,50,22.43,50,50C100,77.57,77.57,100,50,100z M50,6
			C25.738,6,6,25.738,6,50c0,24.262,19.738,44,44,44c24.262,0,44-19.738,44-44C94,25.738,74.262,6,50,6z"/>
	</g>
	<g>
		<path d="M76.4,23.6H23.6c-1.988,0-3.6,1.612-3.6,3.6v45.601c0,1.986,1.612,3.6,3.6,3.6h52.8c1.988,0,3.6-1.612,3.6-3.6V27.2
			C80,25.211,78.389,23.6,76.4,23.6z M67.4,26c1.322,0,2.398,1.076,2.398,2.4c0,1.324-1.076,2.4-2.398,2.4
			c-1.323,0-2.4-1.076-2.4-2.4C65,27.076,66.077,26,67.4,26z M60.8,26c1.323,0,2.4,1.076,2.4,2.4c0,1.324-1.077,2.4-2.4,2.4
			S58.4,29.724,58.4,28.4C58.4,27.076,59.477,26,60.8,26z M39.604,72.801C40.46,67.827,44.783,64.04,50,64.04
			s9.539,3.787,10.396,8.761H39.604z M76.4,71.434c0-1.166-0.946-2.088-2.113-2.088h-3.836c-0.5-1.922-1.271-3.773-2.266-5.453
			l2.722-2.727c0.825-0.825,0.825-2.165,0-2.99l-4.479-4.482c-0.826-0.823-2.164-0.825-2.986,0l-2.735,2.722
			c-1.681-0.994-3.53-1.767-5.453-2.267v-3.836c0-1.165-0.918-2.111-2.087-2.111h-6.333c-1.167,0-2.086,0.945-2.086,2.111v3.838
			c-1.923,0.5-3.773,1.271-5.453,2.265l-2.728-2.722c-0.825-0.825-2.166-0.825-2.99,0l-4.482,4.48
			c-0.825,0.825-0.826,2.162-0.001,2.987l2.721,2.731c-0.993,1.682-1.766,3.531-2.265,5.453h-3.838c-1.166,0-2.112,0.92-2.112,2.088
			V33.2h52.799v38.234H76.4z M74,30.8c-1.322,0-2.4-1.076-2.4-2.4c0-1.324,1.078-2.4,2.4-2.4s2.4,1.076,2.4,2.4
			C76.4,29.724,75.322,30.8,74,30.8z"/>
	</g>
</g>
</svg>
