<?xml version="1.0" encoding="utf-8"?>
<!-- Generator: Adobe Illustrator 16.0.0, SVG Export Plug-In . SVG Version: 6.00 Build 0)  -->
<!DOCTYPE svg PUBLIC "-//W3C//DTD SVG 1.1//EN" "http://www.w3.org/Graphics/SVG/1.1/DTD/svg11.dtd">
<svg version="1.1" id="Layer_1" xmlns="http://www.w3.org/2000/svg" xmlns:xlink="http://www.w3.org/1999/xlink" x="0px" y="0px"
	 width="100px" height="100px" viewBox="0 0 100 100" enable-background="new 0 0 100 100" xml:space="preserve">
<path d="M67.362,17.16C53.522,3.317,31,3.317,17.159,17.16C3.317,31,3.317,53.522,17.159,67.362
	c13.367,13.367,34.827,13.822,48.749,1.373l2.814,2.814c-0.701,1.795-0.334,3.908,1.116,5.357l14.849,14.85
	c1.953,1.953,5.119,1.953,7.071,0c1.953-1.951,1.953-5.117,0-7.07l-14.85-14.849c-1.449-1.45-3.564-1.817-5.358-1.116l-2.814-2.814
	C81.187,51.985,80.729,30.525,67.362,17.16z M21.401,63.121c-11.502-11.502-11.502-30.218,0-41.72s30.218-11.502,41.72,0
	s11.502,30.218,0,41.72C51.619,74.622,32.903,74.622,21.401,63.121z"/>
<path d="M54.003,22.927c-6.483-6.483-16.958-6.431-23.442,0.052s-6.529,16.982-0.046,23.464l11.714,11.648l11.737-11.739
	C60.449,39.868,60.485,29.41,54.003,22.927z M42.271,44.58c-5.515,0-9.987-4.471-9.987-9.986c0-5.517,4.472-9.988,9.987-9.988
	c5.517,0,9.988,4.472,9.988,9.988C52.259,40.108,47.789,44.58,42.271,44.58z"/>
<path d="M42.083,61.334c4.161,0,8.089,0.907,11.574,2.509C50.94,60.798,46.734,58.834,42,58.834c-4.8,0-9.056,2.021-11.767,5.14
	C33.787,62.29,37.813,61.334,42.083,61.334z"/>
</svg>
