<?xml version="1.0" encoding="utf-8"?>
<!-- Generator: Adobe Illustrator 16.0.0, SVG Export Plug-In . SVG Version: 6.00 Build 0)  -->
<!DOCTYPE svg PUBLIC "-//W3C//DTD SVG 1.1//EN" "http://www.w3.org/Graphics/SVG/1.1/DTD/svg11.dtd">
<svg version="1.1" id="Layer_1" xmlns="http://www.w3.org/2000/svg" xmlns:xlink="http://www.w3.org/1999/xlink" x="0px" y="0px"
	 width="100px" height="100px" viewBox="0 0 100 100" enable-background="new 0 0 100 100" xml:space="preserve">
<path d="M94,6H6c-3.313,0-6,2.687-6,6v76c0,3.313,2.687,6,6,6h88c3.314,0,6-2.688,6-6V12C100,8.686,97.314,6,94,6z M79,10
	c2.205,0,4,1.794,4,4s-1.795,4-4,4s-4-1.794-4-4S76.795,10,79,10z M68,10c2.205,0,4,1.794,4,4s-1.795,4-4,4s-4-1.794-4-4
	S65.795,10,68,10z M94,88H6V22h88V88z M90,18c-2.205,0-4-1.794-4-4s1.795-4,4-4s4,1.794,4,4S92.205,18,90,18z"/>
<g id="_x23_1e1e1cff">
	<path d="M50.425,31.045c0.454-0.161,0.946,0.092,1.209,0.467c0.666,0.896,1.319,1.803,1.975,2.708
		c0.554,0.764,1.609,1.123,2.511,0.84c1.129-0.365,2.253-0.749,3.389-1.09c0.618-0.179,1.278,0.305,1.307,0.943
		c0.024,1.168,0.03,2.338,0.021,3.507c-0.021,0.927,0.605,1.82,1.468,2.147c1.151,0.378,2.313,0.73,3.452,1.142
		c0.604,0.213,0.852,1.001,0.501,1.531c-0.667,0.985-1.395,1.929-2.087,2.897c-0.509,0.72-0.526,1.747-0.065,2.494
		c0.7,0.99,1.438,1.955,2.128,2.951c0.367,0.521,0.168,1.319-0.434,1.564c-1.134,0.41-2.294,0.75-3.437,1.143
		c-0.81,0.273-1.422,1.049-1.514,1.895c-0.019,1.242-0.009,2.483-0.027,3.725c0.005,0.657-0.665,1.189-1.305,1.006
		c-1.138-0.325-2.253-0.728-3.383-1.076c-0.881-0.294-1.932,0.045-2.482,0.791c-0.709,0.951-1.391,1.924-2.107,2.869
		c-0.39,0.517-1.233,0.525-1.624,0.006c-0.721-0.946-1.403-1.92-2.114-2.873c-0.564-0.762-1.641-1.088-2.535-0.772
		c-1.083,0.345-2.16,0.711-3.247,1.041c-0.659,0.236-1.394-0.293-1.395-0.987c-0.014-1.143-0.008-2.286-0.006-3.429
		c0.02-0.954-0.621-1.876-1.522-2.187c-1.122-0.379-2.256-0.729-3.376-1.115c-0.616-0.197-0.885-1.001-0.521-1.536
		c0.657-0.99,1.389-1.93,2.078-2.897c0.544-0.75,0.542-1.846,0.009-2.6c-0.693-0.97-1.406-1.926-2.088-2.904
		c-0.357-0.535-0.099-1.322,0.509-1.536c1.116-0.405,2.254-0.749,3.385-1.114c0.801-0.276,1.402-1.042,1.51-1.879
		c0.044-1.271-0.015-2.545,0.033-3.815c0.032-0.638,0.706-1.098,1.314-0.919c1.138,0.337,2.26,0.727,3.394,1.082
		c0.921,0.292,2-0.104,2.539-0.9c0.596-0.836,1.206-1.661,1.807-2.494C49.879,31.404,50.104,31.141,50.425,31.045z"/>
	<path d="M64.046,60.161c3.672,3.799,7.3,7.641,10.954,11.46c-3.123,0.016-6.245-0.005-9.367,0.01
		c-0.014,3.122,0.003,6.245-0.008,9.367c-4.259-4.565-8.523-9.125-12.777-13.694c0.849-0.669,1.446-1.578,2.054-2.457
		c0.722,0.165,1.402,0.475,2.126,0.635c1.406,0.321,2.926,0.104,4.173-0.625C62.873,63.903,63.911,62.061,64.046,60.161z"/>
	<path d="M25,71.621c3.249-3.396,6.455-6.835,9.739-10.194c0.624,2.387,2.917,4.212,5.397,4.197c1.223,0.059,2.351-0.458,3.501-0.78
		c0.814,1.153,1.646,2.362,2.928,3.045c-4.063,4.371-8.129,8.738-12.19,13.109c-0.012-3.122,0.008-6.244-0.009-9.366
		C31.243,71.614,28.122,71.637,25,71.621z"/>
</g>
</svg>
