<?xml version="1.0" encoding="utf-8"?>
<!-- Generator: Adobe Illustrator 16.0.0, SVG Export Plug-In . SVG Version: 6.00 Build 0)  -->
<!DOCTYPE svg PUBLIC "-//W3C//DTD SVG 1.1//EN" "http://www.w3.org/Graphics/SVG/1.1/DTD/svg11.dtd">
<svg version="1.1" id="Layer_1" xmlns="http://www.w3.org/2000/svg" xmlns:xlink="http://www.w3.org/1999/xlink" x="0px" y="0px"
	 width="100px" height="100px" viewBox="0 0 100 100" enable-background="new 0 0 100 100" xml:space="preserve">
<g>
	<path d="M67.361,16.16c-13.84-13.842-36.36-13.842-50.202,0C3.317,30,3.317,52.521,17.159,66.361
		c13.366,13.367,34.825,13.822,48.748,1.373l2.813,2.813c-0.701,1.797-0.334,3.908,1.114,5.357l14.851,14.851
		c1.953,1.953,5.119,1.952,7.07,0c1.953-1.95,1.953-5.116,0-7.069l-14.85-14.85c-1.449-1.447-3.564-1.814-5.357-1.113l-2.814-2.816
		C81.188,50.984,80.729,29.525,67.361,16.16z M21.401,62.12c-11.502-11.502-11.502-30.216,0-41.718
		c11.502-11.503,30.218-11.502,41.72,0s11.502,30.217,0,41.719S32.903,73.622,21.401,62.12z"/>
	<g>
		<path d="M39.354,42.815L38.51,30.16c-0.159-2.466-0.238-4.236-0.238-5.311c0-1.462,0.383-2.603,1.149-3.421
			c0.766-0.818,1.774-1.229,3.025-1.229c1.515,0,2.527,0.524,3.038,1.572c0.511,1.048,0.767,2.559,0.767,4.531
			c0,1.163-0.062,2.343-0.186,3.541L44.93,42.868c-0.123,1.55-0.388,2.739-0.793,3.567c-0.405,0.828-1.074,1.242-2.008,1.242
			c-0.951,0-1.611-0.401-1.981-1.202C39.777,45.673,39.514,44.453,39.354,42.815z M42.287,60.199c-1.074,0-2.012-0.348-2.813-1.045
			c-0.802-0.694-1.202-1.668-1.202-2.918c0-1.092,0.383-2.021,1.149-2.787c0.767-0.768,1.704-1.148,2.813-1.148
			s2.057,0.383,2.841,1.148c0.783,0.766,1.176,1.695,1.176,2.787c0,1.232-0.396,2.201-1.189,2.906
			C44.27,59.848,43.344,60.199,42.287,60.199z"/>
	</g>
	<g>
		<rect x="24.262" y="81.501" width="36" height="4"/>
	</g>
	<g>
		<rect x="32.261" y="90.223" width="20" height="4"/>
	</g>
</g>
</svg>
