<?xml version="1.0" encoding="utf-8"?>
<!-- Generator: Adobe Illustrator 16.0.0, SVG Export Plug-In . SVG Version: 6.00 Build 0)  -->
<!DOCTYPE svg PUBLIC "-//W3C//DTD SVG 1.1//EN" "http://www.w3.org/Graphics/SVG/1.1/DTD/svg11.dtd">
<svg version="1.1" id="Layer_1" xmlns="http://www.w3.org/2000/svg" xmlns:xlink="http://www.w3.org/1999/xlink" x="0px" y="0px"
	 width="100px" height="100px" viewBox="0 0 100 100" enable-background="new 0 0 100 100" xml:space="preserve">
<g>
	<path d="M50,0C22.43,0,0,22.43,0,50c0,27.57,22.43,50,50,50c27.57,0,50-22.43,50-50C100,22.43,77.57,0,50,0z M53,93.887V86h-6
		v7.887C25.126,92.404,7.595,74.874,6.114,53H14v-6H6.114C7.595,25.126,25.126,7.595,47,6.114V14h6V6.114
		C74.874,7.595,92.404,25.126,93.887,47H86v6h7.887C92.404,74.874,74.874,92.404,53,93.887z"/>
	<path fill="#020201" d="M29.039,59.521c3.095-2.055,6.531-3.287,9.854-4.385c0.478-0.156,0.954-0.367,1.429-0.525l0.098-0.061
		c0.703-0.246,1.368-0.49,1.912-0.789c0.025-0.06,0.061-0.162,0.104-0.32C39.7,49.448,37.84,43.272,37.84,37.983
		c0-4.486,1.41-7.813,4.068-9.836c-1.148-0.582-2.536-0.805-4.028-0.805c-3.977,0-7.2,1.588-7.2,7.292
		c0,3.788,1.42,8.433,3.539,11.13c-0.021,0.213-0.045,0.427-0.084,0.639c-0.127,0.58-0.329,1.229-0.871,1.551
		c-0.607,0.361-1.283,0.59-1.947,0.822c-2.754,0.927-5.604,1.744-8.047,3.369c-1.271,0.836-2.133,2.5-2.607,3.926
		c-0.49,1.482-0.691,2.93-0.66,4.93h7.51C27.99,60,28.498,59.876,29.039,59.521z"/>
	<path fill="#020201" d="M76.732,52.199c-2.445-1.623-5.295-2.467-8.049-3.394c-0.664-0.232-1.341-0.476-1.947-0.837
		c-0.543-0.322-0.746-0.979-0.871-1.558c-0.055-0.307-0.09-0.619-0.105-0.929c1.996-2.732,3.32-7.19,3.32-10.846
		c0-5.706-3.223-7.295-7.199-7.295c-1.514,0-2.914,0.232-4.074,0.831c2.637,2.026,4.035,5.342,4.035,9.81
		c0,5.15-1.729,11.079-4.355,15.098c0.009,0.045,0.017,0.09,0.023,0.135c0.068,0.313,0.125,0.476,0.16,0.558
		c0.576,0.319,1.266,0.572,2.035,0.844l1.152,0.383c3.41,1.133,6.936,2.503,10.11,4.611C71.482,59.945,71.966,60,72.421,61h7.576
		c0.028-2-0.172-3.447-0.66-4.93C78.863,54.646,78.002,53.037,76.732,52.199z"/>
	<path d="M69.643,61.422c-3.26-2.162-7.059-3.301-10.729-4.535c-0.888-0.311-1.787-0.641-2.597-1.123
		c-0.725-0.43-0.994-1.305-1.162-2.078c-0.073-0.41-0.12-0.828-0.143-1.242c2.662-3.641,4.428-9.585,4.428-14.459
		c0-7.608-4.297-9.728-9.6-9.728s-9.6,2.118-9.6,9.725c0,5.049,1.893,11.244,4.717,14.841c-0.026,0.283-0.06,0.566-0.11,0.851
		c-0.169,0.771-0.439,1.64-1.161,2.067c-0.812,0.48-1.711,0.785-2.598,1.097c-3.672,1.235-7.471,2.326-10.729,4.49
		c-1.695,1.114-2.844,3.269-3.477,5.17C26.23,68.469,25.963,71,26.003,73H50h23.997c0.041-2-0.228-4.531-0.879-6.504
		C72.484,64.594,71.336,62.539,69.643,61.422z"/>
</g>
</svg>
