<?xml version="1.0" encoding="utf-8"?>
<!-- Generator: Adobe Illustrator 16.0.0, SVG Export Plug-In . SVG Version: 6.00 Build 0)  -->
<!DOCTYPE svg PUBLIC "-//W3C//DTD SVG 1.1//EN" "http://www.w3.org/Graphics/SVG/1.1/DTD/svg11.dtd">
<svg version="1.1" id="Layer_1" xmlns="http://www.w3.org/2000/svg" xmlns:xlink="http://www.w3.org/1999/xlink" x="0px" y="0px"
	 width="100px" height="100px" viewBox="0 0 100 100" enable-background="new 0 0 100 100" xml:space="preserve">
<g>
	<circle cx="52.15" cy="65.3" r="3.6"/>
	<path d="M32,77c13,0,27,0,40,0c0-18,0-36,0-54c-13,0-27,0-40,0C32,41,32,59,32,77z M61,66.382C61,66.78,60.828,67,60.43,67h-1.308
		c-0.17,1-0.434,1.334-0.772,1.906l0.928,0.955c0.281,0.281,0.281,0.748,0,1.029l-1.528,1.533c-0.281,0.281-0.738,0.284-1.02,0.003
		l-0.899-0.926C55.258,71.839,55,72.104,54,72.274v1.309C54,73.98,53.627,74,53.229,74h-2.159C50.671,74,50,73.98,50,73.583v-1.309
		c0-0.171-1.107-0.435-1.68-0.772l-0.842,0.928c-0.281,0.281-0.692,0.281-0.974-0.001l-1.505-1.527
		c-0.281-0.281-0.27-0.738,0.011-1.02l0.934-0.976C45.605,68.334,45.348,68,45.177,67h-1.308C43.471,67,43,66.779,43,66.382v-2.16
		C43,63.822,43.471,64,43.869,64h1.308c0.171-1,0.434-1.532,0.772-2.105l-0.928-1.055c-0.281-0.281-0.281-0.798,0-1.079l1.528-1.558
		c0.281-0.281,0.738-0.296,1.019-0.015l0.751,0.919c0.573-0.339,1.68-0.609,1.68-0.779V57.02c0-0.397,0.671-1.02,1.069-1.02h2.159
		C53.628,56,54,56.622,54,57.02v1.309c1,0.17,1.258,0.434,1.83,0.772l0.917-0.928c0.281-0.281,0.73-0.281,1.012,0l1.522,1.528
		c0.281,0.281,0.279,0.738-0.002,1.02l-0.929,1.174C58.689,62.468,58.952,63,59.122,64h1.308c0.398,0,0.57-0.178,0.57,0.222V66.382z
		 M54,30h13v12H54V30z M37,30h13v2H37V30z M37,35h13v2H37V35z M37,40h13v2H37V40z M37,44h30v3H37V44z M37,50h30v3H37V50z"/>
	<path d="M50,0C22.386,0,0,22.386,0,50s22.386,50,50,50s50-22.386,50-50S77.614,0,50,0z M75,78.302c0,0.5-0.219,0.88-0.492,1.151
		c-0.014,0.016-0.05,0.032-0.064,0.047s-0.039,0.031-0.056,0.045C74.116,79.818,73.727,80,73.227,80c-14.151,0-28.302,0-42.453,0
		C29.849,80,29,79.228,29,78.302c0-18.867,0-37.736,0-56.604C29,20.773,29.849,20,30.774,20c14.151,0,28.301,0,42.453,0
		C74.152,20,75,20.773,75,21.698C75,40.566,75,59.435,75,78.302z"/>
</g>
</svg>
