<?xml version="1.0" encoding="utf-8"?>
<!-- Generator: Adobe Illustrator 16.0.0, SVG Export Plug-In . SVG Version: 6.00 Build 0)  -->
<!DOCTYPE svg PUBLIC "-//W3C//DTD SVG 1.1//EN" "http://www.w3.org/Graphics/SVG/1.1/DTD/svg11.dtd">
<svg version="1.1" id="Layer_1" xmlns="http://www.w3.org/2000/svg" xmlns:xlink="http://www.w3.org/1999/xlink" x="0px" y="0px"
	 width="100px" height="100px" viewBox="0 0 100 100" enable-background="new 0 0 100 100" xml:space="preserve">
<g>
	<path d="M50,0C22.386,0,0,22.386,0,50s22.386,50,50,50s50-22.386,50-50S77.614,0,50,0z M42.265,34.602l9.229-9.229
		c4.465-4.465,11.941-4.252,16.666,0.472c4.725,4.725,4.937,12.201,0.471,16.667l-9.228,9.228
		c-4.465,4.465-11.941,4.254-16.666-0.472c-1.645-1.644-2.729-3.624-3.273-5.693l0.339-0.34c0.876-0.875,2.003-1.367,3.197-1.491
		c0.268,1.729,1.088,3.428,2.46,4.801c3.224,3.223,8.255,3.435,11.219,0.471l9.228-9.229c2.964-2.963,2.752-7.995-0.472-11.218
		c-3.223-3.223-8.256-3.435-11.219-0.472l-8.146,8.146c-1.727-0.309-3.485-0.298-5.178,0.048
		C41.288,35.694,41.741,35.126,42.265,34.602z M52.855,58.288l-9.228,9.228c-4.465,4.465-11.942,4.254-16.667-0.471
		c-4.725-4.726-4.937-12.202-0.471-16.667l9.228-9.228c4.465-4.465,11.941-4.254,16.666,0.471c1.646,1.644,2.73,3.624,3.274,5.693
		l-0.34,0.34c-0.876,0.875-2.002,1.365-3.196,1.489c-0.269-1.729-1.088-3.427-2.46-4.799c-3.223-3.223-8.256-3.435-11.219-0.472
		l-9.229,9.229c-2.963,2.964-2.751,7.995,0.471,11.219c3.223,3.224,8.256,3.434,11.219,0.472l8.145-8.145
		c1.728,0.308,3.486,0.3,5.179-0.048C53.832,57.197,53.378,57.765,52.855,58.288z M70.434,81.164
		c-7.093,0-12.841-5.751-12.841-12.842s5.748-12.841,12.841-12.841c7.092,0,12.841,5.75,12.841,12.841S77.525,81.164,70.434,81.164z
		"/>
	<path d="M73,66v-5.192c0-1.499-1.001-2.714-2.5-2.714S68,59.309,68,60.808V66h-4.951c-1.498,0-2.714,1.001-2.714,2.5
		s1.216,2.5,2.714,2.5H68v4.737c0,1.5,1.001,2.714,2.5,2.714s2.5-1.214,2.5-2.714V71h4.978c1.499,0,2.715-1.001,2.716-2.5
		c0-1.499-1.217-2.5-2.716-2.5H73z"/>
</g>
</svg>
