<?xml version="1.0" encoding="utf-8"?>
<!-- Generator: Adobe Illustrator 16.0.0, SVG Export Plug-In . SVG Version: 6.00 Build 0)  -->
<!DOCTYPE svg PUBLIC "-//W3C//DTD SVG 1.1//EN" "http://www.w3.org/Graphics/SVG/1.1/DTD/svg11.dtd">
<svg version="1.1" id="Layer_1" xmlns="http://www.w3.org/2000/svg" xmlns:xlink="http://www.w3.org/1999/xlink" x="0px" y="0px"
	 width="100px" height="100px" viewBox="0 0 100 100" enable-background="new 0 0 100 100" xml:space="preserve">
<g>
	<path d="M76.332,48C75.442,35,65,24.557,52,23.668V28h-4v-4.332C35,24.557,24.557,35,23.668,48H28v4h-4.332
		C24.557,65,35,75.442,48,76.332V72h4v4.332C65,75.442,75.442,65,76.332,52H72v-4H76.332z M32.398,53.843
		c0.284-0.855,0.801-1.954,1.564-2.456c1.466-0.975,3.176-1.515,4.828-2.071c0.398-0.139,0.804-0.302,1.168-0.518
		c0.325-0.193,0.446-0.595,0.522-0.943c0.023-0.127,0.038-0.262,0.051-0.39c-1.271-1.618-2.124-4.409-2.124-6.681
		c0-3.423,1.934-4.377,4.32-4.377c0.895,0,1.728,0.133,2.417,0.482c-1.595,1.214-2.441,3.209-2.441,5.901
		c0,3.174,1.116,6.878,2.757,9.274c-0.025,0.096-0.047,0.157-0.062,0.192c-0.327,0.18-0.726,0.326-1.147,0.474l-0.059,0.036
		c-0.285,0.095-0.57,0.222-0.857,0.315c-1.994,0.658-4.056,1.599-5.913,2.831C37.099,56.126,36.794,56,36.508,57h-4.506
		C31.983,55,32.104,54.731,32.398,53.843z M50,64H35.602c-0.024-1,0.136-2.818,0.527-4.002c0.38-1.141,1.069-2.483,2.086-3.152
		c1.955-1.298,4.234-1.977,6.438-2.718c0.532-0.188,1.072-0.383,1.559-0.671c0.434-0.257,0.596-0.785,0.697-1.247
		c0.03-0.171,0.05-0.344,0.066-0.514c-1.694-2.158-2.83-5.877-2.83-8.906c0-4.564,2.578-5.835,5.76-5.835
		c3.182,0,5.76,1.271,5.76,5.836c0,2.924-1.06,6.49-2.657,8.675c0.014,0.249,0.042,0.499,0.086,0.745
		c0.101,0.465,0.263,0.989,0.697,1.247c0.485,0.29,1.025,0.487,1.558,0.674c2.203,0.741,4.482,1.424,6.438,2.722
		c1.017,0.67,1.705,2.003,2.086,3.145C64.262,61.182,64.423,63,64.398,64H50z M63.452,57c-0.272-1-0.563-0.833-0.871-1.034
		c-1.905-1.265-4.021-2.187-6.066-2.866l-0.691-0.28c-0.462-0.163-0.876-0.34-1.222-0.531c-0.021-0.049-0.055-0.159-0.096-0.347
		c-0.004-0.027-0.009-0.062-0.014-0.088c1.576-2.411,2.613-5.972,2.613-9.062c0-2.681-0.84-4.672-2.422-5.888
		c0.696-0.359,1.537-0.499,2.445-0.499c2.386,0,4.319,0.953,4.319,4.377c0,2.193-0.795,4.868-1.992,6.507
		c0.009,0.186,0.03,0.373,0.063,0.558c0.074,0.348,0.196,0.741,0.522,0.935c0.363,0.217,0.77,0.363,1.168,0.502
		c1.652,0.556,3.362,1.063,4.829,2.036c0.762,0.503,1.279,1.669,1.563,2.523C67.896,54.731,68.016,55,67.998,57H63.452z"/>
	<path d="M50,0C22.386,0,0,22.386,0,50s22.386,50,50,50s50-22.386,50-50S77.614,0,50,0z M50,80c-16.542,0-30-13.458-30-30
		s13.458-30,30-30s30,13.458,30,30S66.542,80,50,80z"/>
</g>
</svg>
