<?xml version="1.0" encoding="utf-8"?>
<!-- Generator: Adobe Illustrator 16.0.0, SVG Export Plug-In . SVG Version: 6.00 Build 0)  -->
<!DOCTYPE svg PUBLIC "-//W3C//DTD SVG 1.1//EN" "http://www.w3.org/Graphics/SVG/1.1/DTD/svg11.dtd">
<svg version="1.1" id="Layer_1" xmlns="http://www.w3.org/2000/svg" xmlns:xlink="http://www.w3.org/1999/xlink" x="0px" y="0px"
	 width="100px" height="100px" viewBox="0 0 100 100" enable-background="new 0 0 100 100" xml:space="preserve">
<g>
	<path d="M50,64.24c-5.217,0-9.54,3.76-10.396,8.76h20.791C59.539,68,55.217,64.24,50,64.24z"/>
	<circle cx="60.8" cy="28.4" r="2.4"/>
	<path d="M67.4,30.8c1.322,0,2.399-1.076,2.399-2.4S68.723,26,67.4,26c-1.323,0-2.4,1.076-2.4,2.4S66.077,30.8,67.4,30.8z"/>
	<circle cx="74" cy="28.4" r="2.4"/>
	<path d="M50,0C22.386,0,0,22.386,0,50s22.386,50,50,50s50-22.386,50-50S77.614,0,50,0z M80,73.399C80,75.388,78.389,77,76.4,77
		H23.6c-1.988,0-3.6-1.612-3.6-3.601V27.601C20,25.612,21.612,24,23.6,24H76.4c1.988,0,3.6,1.612,3.6,3.601V73.399z"/>
	<path d="M24,71.435C24,70.267,24.546,69,25.712,69h3.838c0.499-2,1.271-3.6,2.265-5.279l-2.721-2.646
		c-0.825-0.825-0.824-2.118,0.001-2.943l4.482-4.46c0.824-0.825,2.165-0.814,2.99,0.011l2.854,2.727
		C41.1,55.415,43,54.649,45,54.149v-3.838C45,49.146,45.666,48,46.832,48h6.333C54.334,48,55,49.147,55,50.312v3.837
		c2,0.5,3.899,1.271,5.579,2.266l2.798-2.722c0.824-0.825,2.193-0.823,3.019,0.001l4.496,4.482c0.825,0.825,0.833,2.165,0.008,2.99
		l-2.717,2.554c0.993,1.68,1.769,3.28,2.269,5.28h3.836C75.454,69,76,70.267,76,71.433V33H24V71.435z"/>
</g>
</svg>
