<?xml version="1.0" encoding="utf-8"?>
<!-- Generator: Adobe Illustrator 16.0.0, SVG Export Plug-In . SVG Version: 6.00 Build 0)  -->
<!DOCTYPE svg PUBLIC "-//W3C//DTD SVG 1.1//EN" "http://www.w3.org/Graphics/SVG/1.1/DTD/svg11.dtd">
<svg version="1.1" id="Layer_1" xmlns="http://www.w3.org/2000/svg" xmlns:xlink="http://www.w3.org/1999/xlink" x="0px" y="0px"
	 width="100px" height="100px" viewBox="0 0 100 100" enable-background="new 0 0 100 100" xml:space="preserve">
<g>
	<path d="M61.107,31.151c-7.983-7.983-20.974-7.984-28.957,0c-7.984,7.983-7.984,20.973,0,28.957
		c7.983,7.983,20.974,7.984,28.957,0.001C69.091,52.124,69.091,39.134,61.107,31.151z M37.015,35.836
		c-3.581,3.581-6.154,7.757-7.721,12.145c-0.341-4.887,1.532-10.147,5.555-14.17c3.968-3.967,9.139-5.846,13.967-5.571
		C44.554,29.817,40.501,32.349,37.015,35.836z"/>
	<path d="M50,0C22.386,0,0,22.386,0,50s22.386,50,50,50s50-22.386,50-50S77.614,0,50,0z M80.983,79.983
		c-1.354,1.354-3.552,1.355-4.907,0L65.768,69.675c-1.005-1.005-1.26-2.472-0.773-3.718l-1.953-1.953
		c-9.663,8.642-24.558,8.325-33.835-0.953c-9.607-9.605-9.607-25.238,0-34.845c9.607-9.608,25.24-9.608,34.845,0
		c9.278,9.277,9.596,24.172,0.953,33.835l1.954,1.955c1.244-0.487,2.712-0.232,3.718,0.773l10.308,10.307
		C82.339,76.432,82.339,78.629,80.983,79.983z"/>
</g>
</svg>
