<?xml version="1.0" encoding="utf-8"?>
<!-- Generator: Adobe Illustrator 16.0.0, SVG Export Plug-In . SVG Version: 6.00 Build 0)  -->
<!DOCTYPE svg PUBLIC "-//W3C//DTD SVG 1.1//EN" "http://www.w3.org/Graphics/SVG/1.1/DTD/svg11.dtd">
<svg version="1.1" id="Layer_1" xmlns="http://www.w3.org/2000/svg" xmlns:xlink="http://www.w3.org/1999/xlink" x="0px" y="0px"
	 width="100px" height="100px" viewBox="0 0 100 100" enable-background="new 0 0 100 100" xml:space="preserve">
<g>
	<circle cx="60.8" cy="28.4" r="2.4"/>
	<path d="M24,73h52V33H24V73z M38,52.4V38.397l12.122,7.001L62.169,52.4l-12.084,7.001L38,66.403V52.4z"/>
	<path d="M67.4,30.8c1.322,0,2.399-1.076,2.399-2.4S68.723,26,67.4,26c-1.323,0-2.4,1.076-2.4,2.4S66.077,30.8,67.4,30.8z"/>
	<circle cx="74" cy="28.4" r="2.4"/>
	<path d="M50,0C22.386,0,0,22.386,0,50s22.386,50,50,50s50-22.386,50-50S77.614,0,50,0z M80,73.399C80,75.388,78.389,77,76.4,77
		H23.6c-1.988,0-3.6-1.612-3.6-3.601V27.601C20,25.612,21.612,24,23.6,24H76.4c1.988,0,3.6,1.612,3.6,3.601V73.399z"/>
</g>
</svg>
